G04 Layer_Physical_Order=1*
G04 Layer_Color=255*
%FSLAX44Y44*%
%MOMM*%
G71*
G01*
G75*
G04:AMPARAMS|DCode=10|XSize=1mm|YSize=0.9mm|CornerRadius=0.1125mm|HoleSize=0mm|Usage=FLASHONLY|Rotation=180.000|XOffset=0mm|YOffset=0mm|HoleType=Round|Shape=RoundedRectangle|*
%AMROUNDEDRECTD10*
21,1,1.0000,0.6750,0,0,180.0*
21,1,0.7750,0.9000,0,0,180.0*
1,1,0.2250,-0.3875,0.3375*
1,1,0.2250,0.3875,0.3375*
1,1,0.2250,0.3875,-0.3375*
1,1,0.2250,-0.3875,-0.3375*
%
%ADD10ROUNDEDRECTD10*%
%ADD11R,0.7112X0.6096*%
%ADD12R,1.5500X0.6000*%
%ADD13R,1.8000X1.2000*%
%ADD14C,0.4000*%
%ADD15C,0.2500*%
%ADD16C,0.5000*%
%ADD17R,1.5000X1.5000*%
%ADD18C,1.5000*%
%ADD19O,1.8000X1.4000*%
G04:AMPARAMS|DCode=20|XSize=1.5mm|YSize=1.9mm|CornerRadius=0.375mm|HoleSize=0mm|Usage=FLASHONLY|Rotation=90.000|XOffset=0mm|YOffset=0mm|HoleType=Round|Shape=RoundedRectangle|*
%AMROUNDEDRECTD20*
21,1,1.5000,1.1500,0,0,90.0*
21,1,0.7500,1.9000,0,0,90.0*
1,1,0.7500,0.5750,0.3750*
1,1,0.7500,0.5750,-0.3750*
1,1,0.7500,-0.5750,-0.3750*
1,1,0.7500,-0.5750,0.3750*
%
%ADD20ROUNDEDRECTD20*%
%ADD21C,1.4500*%
%ADD22C,3.6000*%
%ADD23C,0.6000*%
G36*
X470000Y227959D02*
X474374Y227615D01*
X478640Y226591D01*
X482693Y224912D01*
X486434Y222619D01*
X489770Y219770D01*
X492619Y216434D01*
X494911Y212693D01*
X496590Y208640D01*
X497615Y204374D01*
X497959Y200000D01*
X497960D01*
X497961Y199998D01*
Y150500D01*
X478500D01*
Y135500D01*
X497961D01*
Y94500D01*
X478500D01*
Y79500D01*
X497961D01*
Y30002D01*
X497960Y30000D01*
X497959D01*
X497615Y25626D01*
X496590Y21360D01*
X494911Y17307D01*
X492619Y13566D01*
X489770Y10230D01*
X486434Y7381D01*
X482693Y5088D01*
X478640Y3410D01*
X474374Y2385D01*
X470000Y2041D01*
Y2040D01*
X469999Y2039D01*
X30001D01*
X30000Y2039D01*
Y2041D01*
X25626Y2385D01*
X21360Y3410D01*
X17307Y5088D01*
X13566Y7381D01*
X10230Y10230D01*
X7381Y13566D01*
X5088Y17307D01*
X3410Y21360D01*
X2385Y25626D01*
X2041Y30000D01*
X2039D01*
X2039Y30001D01*
Y199999D01*
X2040Y200000D01*
X2041D01*
X2385Y204374D01*
X3410Y208640D01*
X5088Y212693D01*
X7381Y216434D01*
X10230Y219770D01*
X13566Y222619D01*
X17307Y224912D01*
X21360Y226591D01*
X25626Y227615D01*
X30000Y227959D01*
Y227961D01*
X470000D01*
Y227959D01*
D02*
G37*
%LPC*%
G36*
X375500Y222569D02*
X86000D01*
X84634Y222297D01*
X83477Y221523D01*
X62477Y200523D01*
X61703Y199366D01*
X61431Y198000D01*
Y102759D01*
X60761Y101756D01*
X60412Y100000D01*
X60761Y98244D01*
X61756Y96756D01*
X63244Y95761D01*
X65000Y95412D01*
X66756Y95761D01*
X68244Y96756D01*
X69239Y98244D01*
X69588Y100000D01*
X69239Y101756D01*
X68569Y102759D01*
Y196522D01*
X87478Y215431D01*
X154536D01*
X154822Y214161D01*
X154233Y213767D01*
X153653Y212899D01*
X153449Y211875D01*
Y211304D01*
X133500D01*
X132427Y211090D01*
X131517Y210483D01*
X125035Y204000D01*
X111000D01*
Y186000D01*
X129000D01*
Y200035D01*
X134661Y205696D01*
X153235D01*
X153426Y204426D01*
X153000Y204000D01*
Y201804D01*
X148000D01*
X146927Y201590D01*
X146017Y200983D01*
X143017Y197983D01*
X142410Y197073D01*
X142196Y196000D01*
Y187000D01*
X142410Y185927D01*
X143017Y185017D01*
X157411Y170624D01*
X157385Y170512D01*
X155962Y170003D01*
X155087Y170675D01*
X153019Y171531D01*
X150800Y171823D01*
X146800D01*
X144581Y171531D01*
X142513Y170675D01*
X140738Y169312D01*
X139375Y167537D01*
X138519Y165469D01*
X138227Y163250D01*
X138519Y161031D01*
X139375Y158963D01*
X140738Y157188D01*
X142513Y155825D01*
X144581Y154969D01*
X146800Y154677D01*
X150800D01*
X153019Y154969D01*
X155087Y155825D01*
X156862Y157188D01*
X156994Y157359D01*
X158196Y156951D01*
Y106407D01*
X157761Y105756D01*
X157412Y104000D01*
X157761Y102244D01*
X158756Y100756D01*
X160244Y99761D01*
X162000Y99412D01*
X163756Y99761D01*
X165244Y100756D01*
X166239Y102244D01*
X166588Y104000D01*
X166239Y105756D01*
X165244Y107244D01*
X163804Y108207D01*
Y158143D01*
X165074Y158574D01*
X166138Y157188D01*
X167913Y155825D01*
X169981Y154969D01*
X172200Y154677D01*
X176200D01*
X178419Y154969D01*
X180487Y155825D01*
X182262Y157188D01*
X183625Y158963D01*
X184481Y161031D01*
X184773Y163250D01*
X184481Y165469D01*
X183625Y167537D01*
X182262Y169312D01*
X180487Y170675D01*
X178419Y171531D01*
X176200Y171823D01*
X172200D01*
X169981Y171531D01*
X167913Y170675D01*
X166138Y169312D01*
X165074Y167926D01*
X163804Y168357D01*
Y171000D01*
X163590Y172073D01*
X162983Y172983D01*
X147804Y188161D01*
Y194839D01*
X149161Y196196D01*
X152656D01*
X153500Y195133D01*
X153449Y194875D01*
Y188125D01*
X153653Y187101D01*
X154233Y186233D01*
X155101Y185653D01*
X156125Y185449D01*
X163875D01*
X164900Y185653D01*
X165768Y186233D01*
X166348Y187101D01*
X166552Y188125D01*
Y188696D01*
X178448D01*
Y188125D01*
X178652Y187101D01*
X179232Y186233D01*
X180101Y185653D01*
X181125Y185449D01*
X187086D01*
X196517Y176017D01*
X197427Y175410D01*
X198500Y175196D01*
X255839D01*
X261196Y169839D01*
Y167544D01*
X259926Y167292D01*
X259825Y167537D01*
X258462Y169312D01*
X256687Y170675D01*
X254619Y171531D01*
X252400Y171823D01*
X248400D01*
X246181Y171531D01*
X244113Y170675D01*
X242338Y169312D01*
X240975Y167537D01*
X240119Y165469D01*
X239827Y163250D01*
X240119Y161031D01*
X240975Y158963D01*
X242338Y157188D01*
X244113Y155825D01*
X246181Y154969D01*
X248400Y154677D01*
X252400D01*
X254619Y154969D01*
X254688Y154997D01*
X256196Y153489D01*
Y149697D01*
X254926Y149171D01*
X252114Y151983D01*
X251205Y152590D01*
X250132Y152804D01*
X211343D01*
X210270Y152590D01*
X209361Y151983D01*
X180017Y122640D01*
X179410Y121730D01*
X179196Y120657D01*
Y96161D01*
X160017Y76983D01*
X159410Y76073D01*
X159196Y75000D01*
Y71857D01*
X157926Y71426D01*
X156862Y72812D01*
X155087Y74175D01*
X153019Y75031D01*
X150800Y75323D01*
X146800D01*
X144581Y75031D01*
X142513Y74175D01*
X140738Y72812D01*
X139375Y71037D01*
X138519Y68969D01*
X138227Y66750D01*
X138519Y64531D01*
X139375Y62463D01*
X140738Y60688D01*
X142513Y59325D01*
X144581Y58469D01*
X146800Y58177D01*
X150800D01*
X153019Y58469D01*
X155087Y59325D01*
X156862Y60688D01*
X157926Y62074D01*
X159196Y61643D01*
Y59161D01*
X152839Y52804D01*
X132000D01*
X130927Y52590D01*
X130017Y51983D01*
X121960Y43925D01*
X120800Y44078D01*
X118450Y43768D01*
X116261Y42861D01*
X114381Y41419D01*
X113348Y40073D01*
X112078Y40504D01*
Y44000D01*
X111768Y45561D01*
X110884Y46884D01*
X110884Y46884D01*
X105884Y51884D01*
X104561Y52768D01*
X103000Y53078D01*
X103000Y53078D01*
X92689D01*
X83078Y62689D01*
Y96004D01*
X83239Y96244D01*
X83588Y98000D01*
X83239Y99756D01*
X83078Y99996D01*
Y149004D01*
X83239Y149244D01*
X83588Y151000D01*
X83239Y152756D01*
X82244Y154244D01*
X80756Y155239D01*
X79000Y155588D01*
X77244Y155239D01*
X75756Y154244D01*
X74761Y152756D01*
X74412Y151000D01*
X74761Y149244D01*
X74922Y149004D01*
Y99996D01*
X74761Y99756D01*
X74412Y98000D01*
X74761Y96244D01*
X74922Y96004D01*
Y61000D01*
X74922Y61000D01*
X75232Y59439D01*
X76116Y58116D01*
X88116Y46116D01*
X88116Y46116D01*
X89439Y45232D01*
X91000Y44922D01*
X92516D01*
X92769Y43652D01*
X90861Y42861D01*
X88981Y41419D01*
X87539Y39539D01*
X86632Y37350D01*
X86322Y35000D01*
X86632Y32650D01*
X87539Y30461D01*
X88981Y28581D01*
X90861Y27139D01*
X92596Y26420D01*
Y22626D01*
X92810Y21553D01*
X93417Y20643D01*
X100293Y13767D01*
X101203Y13160D01*
X102276Y12946D01*
X349250D01*
X350323Y13160D01*
X351232Y13767D01*
X355414Y17949D01*
X361375D01*
X362399Y18153D01*
X363268Y18733D01*
X363848Y19601D01*
X364052Y20625D01*
Y26586D01*
X375983Y38517D01*
X376590Y39427D01*
X376804Y40500D01*
Y75000D01*
X376590Y76073D01*
X375983Y76983D01*
X370983Y81983D01*
X370073Y82590D01*
X369000Y82804D01*
X348030D01*
X343804Y87029D01*
X344132Y88111D01*
X344323Y88306D01*
X345744Y89256D01*
X346039Y89696D01*
X350000D01*
X351073Y89910D01*
X351983Y90517D01*
X366161Y104696D01*
X416461D01*
X416756Y104256D01*
X418244Y103261D01*
X420000Y102912D01*
X421756Y103261D01*
X423244Y104256D01*
X424239Y105744D01*
X424530Y107208D01*
X425364Y107631D01*
X425826Y107709D01*
X435517Y98018D01*
X436427Y97410D01*
X437500Y97196D01*
X440750D01*
Y95500D01*
X459250D01*
Y104500D01*
X459250D01*
Y105500D01*
X459250D01*
Y114460D01*
X460290D01*
Y118730D01*
X450000D01*
Y121270D01*
X460290D01*
Y125540D01*
X459250D01*
Y134500D01*
X440750D01*
Y134078D01*
X429078D01*
Y142500D01*
X429078Y142500D01*
X428768Y144061D01*
X427884Y145384D01*
X427884Y145384D01*
X409238Y164029D01*
Y195452D01*
X410216D01*
Y203414D01*
X410216Y203710D01*
X411400Y204231D01*
X412196Y203600D01*
Y167500D01*
X412410Y166427D01*
X413017Y165517D01*
X438017Y140517D01*
X438927Y139909D01*
X440000Y139696D01*
X461339D01*
X469696Y131339D01*
Y123539D01*
X469256Y123244D01*
X468261Y121756D01*
X467912Y120000D01*
X468261Y118244D01*
X469256Y116756D01*
X470744Y115761D01*
X472500Y115412D01*
X474256Y115761D01*
X475744Y116756D01*
X476739Y118244D01*
X477088Y120000D01*
X476739Y121756D01*
X475744Y123244D01*
X475304Y123539D01*
Y132500D01*
X475090Y133573D01*
X474483Y134483D01*
X464483Y144483D01*
X463573Y145090D01*
X462500Y145304D01*
X441161D01*
X417804Y168661D01*
Y205000D01*
X417590Y206073D01*
X416983Y206983D01*
X411983Y211983D01*
X411073Y212590D01*
X410000Y212804D01*
X402500D01*
X401427Y212590D01*
X400517Y211983D01*
X391339Y202804D01*
X368260D01*
X367997Y203055D01*
X367403Y204074D01*
X367612Y205125D01*
Y207230D01*
X360000D01*
Y209770D01*
X367612D01*
Y211875D01*
X367327Y213305D01*
X366755Y214161D01*
X367214Y215313D01*
X367318Y215431D01*
X374022D01*
X379944Y209509D01*
Y204952D01*
X390056D01*
Y214048D01*
X385499D01*
X378023Y221523D01*
X376866Y222297D01*
X375500Y222569D01*
D02*
G37*
G36*
X95870Y204959D02*
Y196270D01*
X104559D01*
X104382Y197621D01*
X103370Y200063D01*
X101761Y202161D01*
X99663Y203770D01*
X97221Y204782D01*
X95870Y204959D01*
D02*
G37*
G36*
X93330Y204959D02*
X91979Y204782D01*
X89537Y203770D01*
X87439Y202161D01*
X85830Y200063D01*
X84818Y197621D01*
X84641Y196270D01*
X93330D01*
Y204959D01*
D02*
G37*
G36*
X104559Y193730D02*
X95870D01*
Y185041D01*
X97221Y185218D01*
X99663Y186230D01*
X101761Y187839D01*
X103370Y189937D01*
X104382Y192379D01*
X104559Y193730D01*
D02*
G37*
G36*
X93330D02*
X84641D01*
X84818Y192379D01*
X85830Y189937D01*
X87439Y187839D01*
X89537Y186230D01*
X91979Y185218D01*
X93330Y185040D01*
Y193730D01*
D02*
G37*
G36*
X470000Y219595D02*
X466177Y219218D01*
X462501Y218103D01*
X459114Y216292D01*
X456145Y213856D01*
X453708Y210886D01*
X451897Y207499D01*
X450782Y203823D01*
X450406Y200000D01*
X450782Y196178D01*
X451897Y192502D01*
X453708Y189114D01*
X456145Y186145D01*
X459114Y183708D01*
X462501Y181898D01*
X466177Y180782D01*
X470000Y180406D01*
X473823Y180782D01*
X477498Y181898D01*
X480886Y183708D01*
X483855Y186145D01*
X486292Y189114D01*
X488103Y192502D01*
X489218Y196178D01*
X489594Y200000D01*
X489218Y203823D01*
X488103Y207499D01*
X486292Y210886D01*
X483855Y213856D01*
X480886Y216292D01*
X477498Y218103D01*
X473823Y219218D01*
X470000Y219595D01*
D02*
G37*
G36*
X30000D02*
X26177Y219218D01*
X22502Y218103D01*
X19114Y216292D01*
X16145Y213856D01*
X13708Y210886D01*
X11897Y207499D01*
X10782Y203823D01*
X10406Y200000D01*
X10782Y196178D01*
X11897Y192502D01*
X13708Y189114D01*
X16145Y186145D01*
X19114Y183708D01*
X22502Y181898D01*
X26177Y180782D01*
X30000Y180406D01*
X33823Y180782D01*
X37499Y181898D01*
X40886Y183708D01*
X43855Y186145D01*
X46292Y189114D01*
X48103Y192502D01*
X49218Y196178D01*
X49594Y200000D01*
X49218Y203823D01*
X48103Y207499D01*
X46292Y210886D01*
X43855Y213856D01*
X40886Y216292D01*
X37499Y218103D01*
X33823Y219218D01*
X30000Y219595D01*
D02*
G37*
G36*
X227000Y171823D02*
X223000D01*
X220781Y171531D01*
X218713Y170675D01*
X216938Y169312D01*
X215575Y167537D01*
X214719Y165469D01*
X214427Y163250D01*
X214719Y161031D01*
X215575Y158963D01*
X216938Y157188D01*
X218713Y155825D01*
X220781Y154969D01*
X223000Y154677D01*
X227000D01*
X229219Y154969D01*
X231287Y155825D01*
X233062Y157188D01*
X234425Y158963D01*
X235281Y161031D01*
X235573Y163250D01*
X235281Y165469D01*
X234425Y167537D01*
X233062Y169312D01*
X231287Y170675D01*
X229219Y171531D01*
X227000Y171823D01*
D02*
G37*
G36*
X201600D02*
X197600D01*
X195381Y171531D01*
X193313Y170675D01*
X191538Y169312D01*
X190175Y167537D01*
X189319Y165469D01*
X189027Y163250D01*
X189319Y161031D01*
X190175Y158963D01*
X191538Y157188D01*
X193313Y155825D01*
X195381Y154969D01*
X197600Y154677D01*
X201600D01*
X203819Y154969D01*
X205887Y155825D01*
X207662Y157188D01*
X209025Y158963D01*
X209881Y161031D01*
X210173Y163250D01*
X209881Y165469D01*
X209025Y167537D01*
X207662Y169312D01*
X205887Y170675D01*
X203819Y171531D01*
X201600Y171823D01*
D02*
G37*
G36*
X125400D02*
X121400D01*
X119181Y171531D01*
X117113Y170675D01*
X115338Y169312D01*
X113975Y167537D01*
X113119Y165469D01*
X112827Y163250D01*
X113119Y161031D01*
X113975Y158963D01*
X115338Y157188D01*
X117113Y155825D01*
X119181Y154969D01*
X121400Y154677D01*
X125400D01*
X127619Y154969D01*
X129687Y155825D01*
X131462Y157188D01*
X132825Y158963D01*
X133681Y161031D01*
X133973Y163250D01*
X133681Y165469D01*
X132825Y167537D01*
X131462Y169312D01*
X129687Y170675D01*
X127619Y171531D01*
X125400Y171823D01*
D02*
G37*
G36*
X100000D02*
X96000D01*
X93781Y171531D01*
X91713Y170675D01*
X89938Y169312D01*
X88575Y167537D01*
X87719Y165469D01*
X87427Y163250D01*
X87719Y161031D01*
X88575Y158963D01*
X89938Y157188D01*
X91713Y155825D01*
X93781Y154969D01*
X96000Y154677D01*
X100000D01*
X102219Y154969D01*
X104287Y155825D01*
X106062Y157188D01*
X107425Y158963D01*
X108281Y161031D01*
X108573Y163250D01*
X108281Y165469D01*
X107425Y167537D01*
X106062Y169312D01*
X104287Y170675D01*
X102219Y171531D01*
X100000Y171823D01*
D02*
G37*
G36*
X23750Y160163D02*
X19270D01*
Y151270D01*
X30164D01*
Y153750D01*
X29675Y156204D01*
X28285Y158285D01*
X26205Y159675D01*
X23750Y160163D01*
D02*
G37*
G36*
X16730D02*
X12250D01*
X9796Y159675D01*
X7715Y158285D01*
X6325Y156204D01*
X5837Y153750D01*
Y151270D01*
X16730D01*
Y160163D01*
D02*
G37*
G36*
X30164Y148730D02*
X19270D01*
Y139837D01*
X23750D01*
X26205Y140325D01*
X28285Y141715D01*
X29675Y143796D01*
X30164Y146250D01*
Y148730D01*
D02*
G37*
G36*
X16730D02*
X5837D01*
Y146250D01*
X6325Y143796D01*
X7715Y141715D01*
X9796Y140325D01*
X12250Y139837D01*
X16730D01*
Y148730D01*
D02*
G37*
G36*
X45000Y148826D02*
X42716Y148525D01*
X40587Y147643D01*
X38759Y146241D01*
X37357Y144413D01*
X36475Y142284D01*
X36174Y140000D01*
X36475Y137716D01*
X37357Y135587D01*
X38759Y133759D01*
X40587Y132357D01*
X42716Y131475D01*
X45000Y131175D01*
X47284Y131475D01*
X49413Y132357D01*
X51241Y133759D01*
X52643Y135587D01*
X53525Y137716D01*
X53825Y140000D01*
X53525Y142284D01*
X52643Y144413D01*
X51241Y146241D01*
X49413Y147643D01*
X47284Y148525D01*
X45000Y148826D01*
D02*
G37*
G36*
X23750Y90163D02*
X19270D01*
Y81270D01*
X30164D01*
Y83750D01*
X29675Y86204D01*
X28285Y88285D01*
X26205Y89675D01*
X23750Y90163D01*
D02*
G37*
G36*
X16730D02*
X12250D01*
X9796Y89675D01*
X7715Y88285D01*
X6325Y86204D01*
X5837Y83750D01*
Y81270D01*
X16730D01*
Y90163D01*
D02*
G37*
G36*
X45000Y98826D02*
X42716Y98525D01*
X40587Y97643D01*
X38759Y96241D01*
X37357Y94413D01*
X36475Y92284D01*
X36174Y90000D01*
X36475Y87716D01*
X37357Y85588D01*
X38759Y83760D01*
X40587Y82357D01*
X42716Y81475D01*
X45000Y81175D01*
X47284Y81475D01*
X49413Y82357D01*
X51241Y83760D01*
X52643Y85588D01*
X53525Y87716D01*
X53825Y90000D01*
X53525Y92284D01*
X52643Y94413D01*
X51241Y96241D01*
X49413Y97643D01*
X47284Y98525D01*
X45000Y98826D01*
D02*
G37*
G36*
X30164Y78730D02*
X19270D01*
Y69837D01*
X23750D01*
X26205Y70325D01*
X28285Y71715D01*
X29675Y73795D01*
X30164Y76250D01*
Y78730D01*
D02*
G37*
G36*
X16730D02*
X5837D01*
Y76250D01*
X6325Y73795D01*
X7715Y71715D01*
X9796Y70325D01*
X12250Y69837D01*
X16730D01*
Y78730D01*
D02*
G37*
G36*
X125400Y75323D02*
X121400D01*
X119181Y75031D01*
X117113Y74175D01*
X115338Y72812D01*
X113975Y71037D01*
X113119Y68969D01*
X112827Y66750D01*
X113119Y64531D01*
X113975Y62463D01*
X115338Y60688D01*
X117113Y59325D01*
X119181Y58469D01*
X121400Y58177D01*
X125400D01*
X127619Y58469D01*
X129687Y59325D01*
X131462Y60688D01*
X132825Y62463D01*
X133681Y64531D01*
X133973Y66750D01*
X133681Y68969D01*
X132825Y71037D01*
X131462Y72812D01*
X129687Y74175D01*
X127619Y75031D01*
X125400Y75323D01*
D02*
G37*
G36*
X100000D02*
X96000D01*
X93781Y75031D01*
X91713Y74175D01*
X89938Y72812D01*
X88575Y71037D01*
X87719Y68969D01*
X87427Y66750D01*
X87719Y64531D01*
X88575Y62463D01*
X89938Y60688D01*
X91713Y59325D01*
X93781Y58469D01*
X96000Y58177D01*
X100000D01*
X102219Y58469D01*
X104287Y59325D01*
X106062Y60688D01*
X107425Y62463D01*
X108281Y64531D01*
X108573Y66750D01*
X108281Y68969D01*
X107425Y71037D01*
X106062Y72812D01*
X104287Y74175D01*
X102219Y75031D01*
X100000Y75323D01*
D02*
G37*
G36*
X470000Y49594D02*
X466177Y49218D01*
X462501Y48103D01*
X459114Y46292D01*
X456145Y43855D01*
X453708Y40886D01*
X451897Y37499D01*
X450782Y33823D01*
X450406Y30000D01*
X450782Y26177D01*
X451897Y22502D01*
X453708Y19114D01*
X456145Y16145D01*
X459114Y13708D01*
X462501Y11897D01*
X466177Y10782D01*
X470000Y10406D01*
X473823Y10782D01*
X477498Y11897D01*
X480886Y13708D01*
X483855Y16145D01*
X486292Y19114D01*
X488103Y22502D01*
X489218Y26177D01*
X489594Y30000D01*
X489218Y33823D01*
X488103Y37499D01*
X486292Y40886D01*
X483855Y43855D01*
X480886Y46292D01*
X477498Y48103D01*
X473823Y49218D01*
X470000Y49594D01*
D02*
G37*
G36*
X30000D02*
X26177Y49218D01*
X22502Y48103D01*
X19114Y46292D01*
X16145Y43855D01*
X13708Y40886D01*
X11897Y37499D01*
X10782Y33823D01*
X10406Y30000D01*
X10782Y26177D01*
X11897Y22502D01*
X13708Y19114D01*
X16145Y16145D01*
X19114Y13708D01*
X22502Y11897D01*
X26177Y10782D01*
X30000Y10406D01*
X33823Y10782D01*
X37499Y11897D01*
X40886Y13708D01*
X43855Y16145D01*
X46292Y19114D01*
X48103Y22502D01*
X49218Y26177D01*
X49594Y30000D01*
X49218Y33823D01*
X48103Y37499D01*
X46292Y40886D01*
X43855Y43855D01*
X40886Y46292D01*
X37499Y48103D01*
X33823Y49218D01*
X30000Y49594D01*
D02*
G37*
%LPD*%
G36*
X304822Y214161D02*
X304232Y213767D01*
X303652Y212899D01*
X303449Y211875D01*
Y205125D01*
X303561Y204561D01*
X303000Y204000D01*
Y196795D01*
X302673Y196305D01*
X302388Y194875D01*
Y192770D01*
X317612D01*
Y194875D01*
X317327Y196305D01*
X317000Y196795D01*
Y204000D01*
X316574Y204426D01*
X316765Y205696D01*
X328235D01*
X328426Y204426D01*
X328000Y204000D01*
Y196000D01*
X328561Y195439D01*
X328448Y194875D01*
Y188125D01*
X328652Y187101D01*
X329232Y186233D01*
X330101Y185653D01*
X331125Y185449D01*
X332196D01*
Y182161D01*
X329839Y179804D01*
X322000D01*
X320927Y179590D01*
X320017Y178983D01*
X312017Y170983D01*
X311410Y170073D01*
X311196Y169000D01*
Y168878D01*
X309926Y168447D01*
X309262Y169312D01*
X307487Y170675D01*
X305419Y171531D01*
X303200Y171823D01*
X299200D01*
X296981Y171531D01*
X294913Y170675D01*
X293138Y169312D01*
X292074Y167926D01*
X290804Y168357D01*
Y173000D01*
X290590Y174073D01*
X289983Y174983D01*
X282983Y181983D01*
X282073Y182590D01*
X281000Y182804D01*
X278161D01*
X274804Y186161D01*
Y205696D01*
X278235D01*
X278426Y204426D01*
X278000Y204000D01*
Y196795D01*
X277673Y196305D01*
X277388Y194875D01*
Y192770D01*
X292612D01*
Y194875D01*
X292327Y196305D01*
X292000Y196795D01*
Y204000D01*
X291439Y204561D01*
X291552Y205125D01*
Y211875D01*
X291348Y212899D01*
X290768Y213767D01*
X290178Y214161D01*
X290465Y215431D01*
X304535D01*
X304822Y214161D01*
D02*
G37*
G36*
X269196Y185000D02*
X269410Y183927D01*
X270017Y183017D01*
X275017Y178017D01*
X275927Y177410D01*
X277000Y177196D01*
X279839D01*
X285196Y171839D01*
Y169549D01*
X283993Y169141D01*
X283862Y169312D01*
X282087Y170675D01*
X280019Y171531D01*
X277800Y171823D01*
X273800D01*
X271581Y171531D01*
X269513Y170675D01*
X268074Y169570D01*
X266804Y170042D01*
Y171000D01*
X266590Y172073D01*
X265983Y172983D01*
X258983Y179983D01*
X258073Y180590D01*
X257000Y180804D01*
X199661D01*
X195014Y185452D01*
X195639Y186622D01*
X195730Y186604D01*
Y192000D01*
X198270D01*
Y186604D01*
X199162Y186781D01*
X200994Y188006D01*
X201118Y188192D01*
X201769Y188158D01*
X202437Y187880D01*
X202673Y186695D01*
X203483Y185483D01*
X204695Y184673D01*
X206125Y184388D01*
X208730D01*
Y191500D01*
X210000D01*
Y192770D01*
X217612D01*
Y194875D01*
X217544Y195214D01*
X218350Y196196D01*
X223839D01*
X228449Y191586D01*
Y188125D01*
X228652Y187101D01*
X229233Y186233D01*
X230101Y185653D01*
X231125Y185449D01*
X238875D01*
X239899Y185653D01*
X240767Y186233D01*
X241348Y187101D01*
X241551Y188125D01*
Y188696D01*
X253449D01*
Y188125D01*
X253652Y187101D01*
X254233Y186233D01*
X255101Y185653D01*
X256125Y185449D01*
X263875D01*
X264899Y185653D01*
X265768Y186233D01*
X266348Y187101D01*
X266551Y188125D01*
Y194875D01*
X266439Y195439D01*
X267000Y196000D01*
Y204000D01*
X266574Y204426D01*
X266764Y205696D01*
X269196D01*
Y185000D01*
D02*
G37*
G36*
X243754Y142281D02*
X243761Y142244D01*
X244756Y140756D01*
X246244Y139761D01*
X247318Y139548D01*
X247564Y138953D01*
X247215Y137197D01*
X247564Y135441D01*
X248559Y133952D01*
X250047Y132958D01*
X251803Y132609D01*
X253559Y132958D01*
X254926Y133871D01*
X255495Y133732D01*
X256196Y133385D01*
Y133000D01*
X256410Y131927D01*
X257017Y131017D01*
X297961Y90074D01*
X297548Y88864D01*
X297500Y88804D01*
X286539D01*
X286244Y89244D01*
X284756Y90239D01*
X283000Y90588D01*
X281244Y90239D01*
X279756Y89244D01*
X278761Y87756D01*
X278412Y86000D01*
X278761Y84244D01*
X279756Y82756D01*
X281244Y81761D01*
X283000Y81412D01*
X284756Y81761D01*
X286244Y82756D01*
X286539Y83196D01*
X298182D01*
X305012Y76366D01*
X304419Y75163D01*
X303200Y75323D01*
X299200D01*
X296981Y75031D01*
X294913Y74175D01*
X293138Y72812D01*
X291775Y71037D01*
X290919Y68969D01*
X290627Y66750D01*
X290919Y64531D01*
X291775Y62463D01*
X293138Y60688D01*
X294913Y59325D01*
X296981Y58469D01*
X299200Y58177D01*
X303200D01*
X305419Y58469D01*
X307487Y59325D01*
X309262Y60688D01*
X310625Y62463D01*
X311481Y64531D01*
X311773Y66750D01*
X311613Y67969D01*
X312816Y68562D01*
X316239Y65139D01*
X316319Y64531D01*
X317175Y62463D01*
X318538Y60688D01*
X320313Y59325D01*
X322381Y58469D01*
X324600Y58177D01*
X328600D01*
X330819Y58469D01*
X332887Y59325D01*
X334662Y60688D01*
X336025Y62463D01*
X336881Y64531D01*
X337173Y66750D01*
X336881Y68969D01*
X336025Y71037D01*
X334662Y72812D01*
X332887Y74175D01*
X330819Y75031D01*
X328600Y75323D01*
X324600D01*
X322381Y75031D01*
X320313Y74175D01*
X318538Y72812D01*
X318238Y72421D01*
X316970Y72338D01*
X303991Y85318D01*
X304616Y86488D01*
X305000Y86412D01*
X306756Y86761D01*
X308244Y87756D01*
X309239Y89244D01*
X309588Y91000D01*
X309239Y92756D01*
X308244Y94244D01*
X306756Y95239D01*
X305000Y95588D01*
X303244Y95239D01*
X302219Y94554D01*
X301411D01*
X297562Y98403D01*
X298188Y99573D01*
X299000Y99412D01*
X300756Y99761D01*
X302244Y100756D01*
X303239Y102244D01*
X303588Y104000D01*
X303239Y105756D01*
X302244Y107244D01*
X300756Y108239D01*
X299000Y108588D01*
X298480Y108485D01*
X279039Y127926D01*
X279565Y129196D01*
X285000D01*
X286073Y129410D01*
X286983Y130017D01*
X291480Y134515D01*
X292000Y134412D01*
X293756Y134761D01*
X294076Y134975D01*
X295196Y134376D01*
Y118000D01*
X295410Y116927D01*
X296017Y116017D01*
X297515Y114520D01*
X297412Y114000D01*
X297761Y112244D01*
X298756Y110756D01*
X300244Y109761D01*
X302000Y109412D01*
X303756Y109761D01*
X305244Y110756D01*
X306239Y112244D01*
X306588Y114000D01*
X306239Y115756D01*
X305244Y117244D01*
X303756Y118239D01*
X302000Y118588D01*
X301822Y118553D01*
X300899Y119361D01*
X300978Y120624D01*
X302074Y121209D01*
X302745Y120761D01*
X304501Y120412D01*
X306256Y120761D01*
X307745Y121756D01*
X308039Y122196D01*
X323839D01*
X333946Y112089D01*
Y90118D01*
X334160Y89045D01*
X334767Y88136D01*
X344886Y78017D01*
X345795Y77410D01*
X346868Y77196D01*
X346971D01*
X347224Y75926D01*
X345189Y75083D01*
X343196Y73554D01*
X341667Y71561D01*
X340705Y69240D01*
X340545Y68020D01*
X352000D01*
X363455D01*
X363294Y69240D01*
X362333Y71561D01*
X360804Y73554D01*
X358811Y75083D01*
X356776Y75926D01*
X357029Y77196D01*
X367839D01*
X371196Y73839D01*
Y41662D01*
X366220Y36685D01*
X365049Y37311D01*
X365112Y37625D01*
Y39730D01*
X357500D01*
X349888D01*
Y37625D01*
X350173Y36195D01*
X350500Y35705D01*
Y28500D01*
X351061Y27939D01*
X350949Y27375D01*
Y21414D01*
X348088Y18554D01*
X292981D01*
X292495Y19727D01*
X297884Y25116D01*
X297884Y25116D01*
X298475Y26000D01*
X304000D01*
Y44000D01*
X286000D01*
Y26000D01*
X285159Y25078D01*
X272484D01*
X272231Y26348D01*
X274139Y27139D01*
X276019Y28581D01*
X277461Y30461D01*
X278368Y32651D01*
X278678Y35000D01*
X278368Y37350D01*
X277461Y39539D01*
X276019Y41419D01*
X274139Y42861D01*
X271950Y43768D01*
X269600Y44078D01*
X267251Y43768D01*
X265061Y42861D01*
X263181Y41419D01*
X261739Y39539D01*
X260832Y37350D01*
X260522Y35000D01*
X260832Y32651D01*
X261739Y30461D01*
X263181Y28581D01*
X265061Y27139D01*
X266969Y26348D01*
X266716Y25078D01*
X249771D01*
X249452Y25802D01*
X249417Y26348D01*
X251361Y27840D01*
X252970Y29937D01*
X253982Y32379D01*
X254160Y33730D01*
X244200D01*
X234241D01*
X234419Y32379D01*
X235430Y29937D01*
X237040Y27840D01*
X238983Y26348D01*
X238948Y25802D01*
X238629Y25078D01*
X212256D01*
X211384Y26384D01*
X206000Y31768D01*
Y44000D01*
X188000D01*
Y26000D01*
X187159Y25078D01*
X174484D01*
X174231Y26348D01*
X176139Y27139D01*
X178019Y28581D01*
X179461Y30461D01*
X180368Y32650D01*
X180678Y35000D01*
X180368Y37350D01*
X179650Y39084D01*
X187983Y47417D01*
X188591Y48327D01*
X188804Y49400D01*
Y62455D01*
X190074Y62708D01*
X190175Y62463D01*
X191538Y60688D01*
X193313Y59325D01*
X195381Y58469D01*
X197600Y58177D01*
X201600D01*
X203819Y58469D01*
X205887Y59325D01*
X207662Y60688D01*
X209025Y62463D01*
X209881Y64531D01*
X210173Y66750D01*
X209881Y68969D01*
X209025Y71037D01*
X207662Y72812D01*
X205887Y74175D01*
X203819Y75031D01*
X201600Y75323D01*
X197600D01*
X195381Y75031D01*
X193313Y74175D01*
X191538Y72812D01*
X190175Y71037D01*
X190074Y70792D01*
X188804Y71045D01*
Y117839D01*
X214161Y143196D01*
X229376D01*
X229975Y142076D01*
X229761Y141756D01*
X229412Y140000D01*
X229761Y138244D01*
X229922Y138004D01*
Y119500D01*
X229922Y119500D01*
X230232Y117940D01*
X230647Y117319D01*
X230761Y116744D01*
X231756Y115256D01*
X233244Y114261D01*
X235000Y113912D01*
X236756Y114261D01*
X238244Y115256D01*
X239239Y116744D01*
X239588Y118500D01*
X239239Y120256D01*
X238244Y121744D01*
X238078Y121855D01*
Y138004D01*
X238239Y138244D01*
X238588Y140000D01*
X238239Y141756D01*
X238025Y142076D01*
X238624Y143196D01*
X242839D01*
X243754Y142281D01*
D02*
G37*
G36*
X166138Y60688D02*
X167913Y59325D01*
X169981Y58469D01*
X172200Y58177D01*
X176200D01*
X178419Y58469D01*
X180487Y59325D01*
X181926Y60430D01*
X183196Y59959D01*
Y50561D01*
X175684Y43050D01*
X173950Y43768D01*
X171600Y44078D01*
X169251Y43768D01*
X167061Y42861D01*
X165181Y41419D01*
X163739Y39539D01*
X162832Y37350D01*
X162522Y35000D01*
X162832Y32650D01*
X163739Y30461D01*
X165181Y28581D01*
X167061Y27139D01*
X168969Y26348D01*
X168716Y25078D01*
X151771D01*
X151452Y25801D01*
X151418Y26348D01*
X153361Y27839D01*
X154970Y29937D01*
X155982Y32379D01*
X156159Y33730D01*
X146200D01*
X136241D01*
X136418Y32379D01*
X137430Y29937D01*
X139039Y27839D01*
X140983Y26348D01*
X140948Y25801D01*
X140629Y25078D01*
X123684D01*
X123431Y26348D01*
X125339Y27139D01*
X127219Y28581D01*
X128661Y30461D01*
X129568Y32650D01*
X129878Y35000D01*
X129568Y37350D01*
X128661Y39539D01*
X127291Y41325D01*
X133161Y47196D01*
X154000D01*
X155073Y47410D01*
X155983Y48017D01*
X163983Y56017D01*
X164590Y56927D01*
X164804Y58000D01*
Y60451D01*
X166007Y60859D01*
X166138Y60688D01*
D02*
G37*
%LPC*%
G36*
X317612Y190230D02*
X311270D01*
Y184388D01*
X313875D01*
X315305Y184673D01*
X316517Y185483D01*
X317327Y186695D01*
X317612Y188125D01*
Y190230D01*
D02*
G37*
G36*
X308730D02*
X302388D01*
Y188125D01*
X302673Y186695D01*
X303483Y185483D01*
X304695Y184673D01*
X306125Y184388D01*
X308730D01*
Y190230D01*
D02*
G37*
G36*
X292612Y190230D02*
X286270D01*
Y184388D01*
X288875D01*
X290305Y184673D01*
X291518Y185483D01*
X292327Y186695D01*
X292612Y188125D01*
Y190230D01*
D02*
G37*
G36*
X283730D02*
X277388D01*
Y188125D01*
X277673Y186695D01*
X278483Y185483D01*
X279695Y184673D01*
X281125Y184388D01*
X283730D01*
Y190230D01*
D02*
G37*
G36*
X299270Y186396D02*
Y182270D01*
X303396D01*
X303218Y183162D01*
X301994Y184994D01*
X300162Y186219D01*
X299270Y186396D01*
D02*
G37*
G36*
X296730D02*
X295838Y186219D01*
X294006Y184994D01*
X292781Y183162D01*
X292604Y182270D01*
X296730D01*
Y186396D01*
D02*
G37*
G36*
X303396Y179730D02*
X299270D01*
Y175604D01*
X300162Y175781D01*
X301994Y177006D01*
X303218Y178838D01*
X303396Y179730D01*
D02*
G37*
G36*
X296730D02*
X292604D01*
X292781Y178838D01*
X294006Y177006D01*
X295838Y175781D01*
X296730Y175604D01*
Y179730D01*
D02*
G37*
G36*
X217612Y190230D02*
X211270D01*
Y184388D01*
X213875D01*
X215305Y184673D01*
X216518Y185483D01*
X217327Y186695D01*
X217612Y188125D01*
Y190230D01*
D02*
G37*
G36*
X207270Y111396D02*
Y107270D01*
X211396D01*
X211219Y108162D01*
X209994Y109994D01*
X208162Y111219D01*
X207270Y111396D01*
D02*
G37*
G36*
X204730D02*
X203838Y111219D01*
X202006Y109994D01*
X200781Y108162D01*
X200604Y107270D01*
X204730D01*
Y111396D01*
D02*
G37*
G36*
X211396Y104730D02*
X207270D01*
Y100604D01*
X208162Y100781D01*
X209994Y102006D01*
X211219Y103838D01*
X211396Y104730D01*
D02*
G37*
G36*
X204730D02*
X200604D01*
X200781Y103838D01*
X202006Y102006D01*
X203838Y100781D01*
X204730Y100604D01*
Y104730D01*
D02*
G37*
G36*
X277800Y75323D02*
X273800D01*
X271581Y75031D01*
X269513Y74175D01*
X267738Y72812D01*
X266375Y71037D01*
X265519Y68969D01*
X265227Y66750D01*
X265519Y64531D01*
X266375Y62463D01*
X267738Y60688D01*
X269513Y59325D01*
X271581Y58469D01*
X273800Y58177D01*
X277800D01*
X280019Y58469D01*
X282087Y59325D01*
X283862Y60688D01*
X285225Y62463D01*
X286081Y64531D01*
X286373Y66750D01*
X286081Y68969D01*
X285225Y71037D01*
X283862Y72812D01*
X282087Y74175D01*
X280019Y75031D01*
X277800Y75323D01*
D02*
G37*
G36*
X252400D02*
X248400D01*
X246181Y75031D01*
X244113Y74175D01*
X242338Y72812D01*
X240975Y71037D01*
X240119Y68969D01*
X239827Y66750D01*
X240119Y64531D01*
X240975Y62463D01*
X242338Y60688D01*
X244113Y59325D01*
X246181Y58469D01*
X248400Y58177D01*
X252400D01*
X254619Y58469D01*
X256687Y59325D01*
X258462Y60688D01*
X259825Y62463D01*
X260681Y64531D01*
X260973Y66750D01*
X260681Y68969D01*
X259825Y71037D01*
X258462Y72812D01*
X256687Y74175D01*
X254619Y75031D01*
X252400Y75323D01*
D02*
G37*
G36*
X227000D02*
X223000D01*
X220781Y75031D01*
X218713Y74175D01*
X216938Y72812D01*
X215575Y71037D01*
X214719Y68969D01*
X214427Y66750D01*
X214719Y64531D01*
X215575Y62463D01*
X216938Y60688D01*
X218713Y59325D01*
X220781Y58469D01*
X223000Y58177D01*
X227000D01*
X229219Y58469D01*
X231287Y59325D01*
X233062Y60688D01*
X234425Y62463D01*
X235281Y64531D01*
X235573Y66750D01*
X235281Y68969D01*
X234425Y71037D01*
X233062Y72812D01*
X231287Y74175D01*
X229219Y75031D01*
X227000Y75323D01*
D02*
G37*
G36*
X363455Y65480D02*
X353270D01*
Y57128D01*
X354000D01*
X356490Y57456D01*
X358811Y58417D01*
X360804Y59946D01*
X362333Y61939D01*
X363294Y64260D01*
X363455Y65480D01*
D02*
G37*
G36*
X350730D02*
X340545D01*
X340705Y64260D01*
X341667Y61939D01*
X343196Y59946D01*
X345189Y58417D01*
X347509Y57456D01*
X350000Y57128D01*
X350730D01*
Y65480D01*
D02*
G37*
G36*
X361375Y48112D02*
X358770D01*
Y42270D01*
X365112D01*
Y44375D01*
X364827Y45805D01*
X364017Y47017D01*
X362805Y47827D01*
X361375Y48112D01*
D02*
G37*
G36*
X356230D02*
X353625D01*
X352195Y47827D01*
X350983Y47017D01*
X350173Y45805D01*
X349888Y44375D01*
Y42270D01*
X356230D01*
Y48112D01*
D02*
G37*
G36*
X245470Y44960D02*
Y36270D01*
X254160D01*
X253982Y37621D01*
X252970Y40063D01*
X251361Y42161D01*
X249263Y43770D01*
X246821Y44782D01*
X245470Y44960D01*
D02*
G37*
G36*
X242930Y44960D02*
X241579Y44782D01*
X239137Y43770D01*
X237040Y42161D01*
X235430Y40063D01*
X234419Y37621D01*
X234241Y36270D01*
X242930D01*
Y44960D01*
D02*
G37*
G36*
X147470Y44959D02*
Y36270D01*
X156159D01*
X155982Y37621D01*
X154970Y40063D01*
X153361Y42161D01*
X151263Y43770D01*
X148821Y44782D01*
X147470Y44959D01*
D02*
G37*
G36*
X144930Y44959D02*
X143579Y44782D01*
X141137Y43770D01*
X139039Y42161D01*
X137430Y40063D01*
X136418Y37621D01*
X136241Y36270D01*
X144930D01*
Y44959D01*
D02*
G37*
%LPD*%
D10*
X357500Y41000D02*
D03*
Y24000D02*
D03*
X235000Y208500D02*
D03*
Y191500D02*
D03*
X260000Y208500D02*
D03*
Y191500D02*
D03*
X285000D02*
D03*
Y208500D02*
D03*
X360000Y208500D02*
D03*
Y191500D02*
D03*
X185000Y191500D02*
D03*
Y208500D02*
D03*
X160000Y191500D02*
D03*
Y208500D02*
D03*
X210000Y191500D02*
D03*
Y208500D02*
D03*
X335000D02*
D03*
Y191500D02*
D03*
X310000D02*
D03*
Y208500D02*
D03*
D11*
X385000Y209500D02*
D03*
Y190348D02*
D03*
X405160Y200000D02*
D03*
D12*
X450000Y130000D02*
D03*
Y120000D02*
D03*
Y110000D02*
D03*
Y100000D02*
D03*
D13*
X489000Y143000D02*
D03*
Y87000D02*
D03*
D14*
X375500Y219000D02*
X385000Y209500D01*
X86000Y219000D02*
X375500D01*
X65000Y198000D02*
X86000Y219000D01*
X65000Y100000D02*
Y198000D01*
D15*
X298000Y136868D02*
X301000Y139868D01*
X298000Y118000D02*
Y136868D01*
Y118000D02*
X302000Y114000D01*
X305000Y133631D02*
Y151000D01*
X314000Y160000D01*
Y169000D01*
X301000Y139868D02*
Y163250D01*
X301200D01*
X300250Y91750D02*
X304250D01*
X259000Y133000D02*
X300250Y91750D01*
X259000Y133000D02*
Y154650D01*
X304250Y91750D02*
X305000Y91000D01*
X250400Y163250D02*
X259000Y154650D01*
X336750Y90118D02*
Y113250D01*
X325000Y125000D02*
X336750Y113250D01*
X304501Y125000D02*
X325000D01*
X346868Y80000D02*
X369000D01*
X336750Y90118D02*
X346868Y80000D01*
X264000Y139000D02*
X299000Y104000D01*
X264000Y139000D02*
Y171000D01*
X283000Y86000D02*
X299343D01*
X318593Y66750D01*
X326600D01*
X275000Y162450D02*
X275800Y163250D01*
X275000Y136000D02*
Y162450D01*
Y136000D02*
X279000Y132000D01*
X285000D01*
X292000Y139000D01*
X223000Y209000D02*
X223500Y208500D01*
X235000D01*
X120000Y195000D02*
X133500Y208500D01*
X160000D01*
X102276Y15750D02*
X349250D01*
X95400Y22626D02*
X102276Y15750D01*
X95400Y22626D02*
Y35000D01*
X349250Y15750D02*
X357500Y24000D01*
X182000Y120657D02*
X211343Y150000D01*
X250132D01*
X253750Y146382D01*
Y141618D02*
Y146382D01*
X251803Y139672D02*
X253750Y141618D01*
X251803Y137197D02*
Y139672D01*
X244000Y146000D02*
X246000Y144000D01*
X213000Y146000D02*
X244000D01*
X186000Y119000D02*
X213000Y146000D01*
X182000Y95000D02*
Y120657D01*
X162000Y75000D02*
X182000Y95000D01*
X162000Y58000D02*
Y75000D01*
X154000Y50000D02*
X162000Y58000D01*
X132000Y50000D02*
X154000D01*
X120800Y38800D02*
X132000Y50000D01*
X120800Y35000D02*
Y38800D01*
X171600Y35000D02*
X186000Y49400D01*
Y119000D01*
X246000Y144000D02*
X248000D01*
X185000Y191500D02*
X198500Y178000D01*
X257000D01*
X264000Y171000D01*
X145000Y187000D02*
Y196000D01*
Y187000D02*
X161000Y171000D01*
X145000Y196000D02*
X148000Y199000D01*
X161000Y104000D02*
Y171000D01*
X148000Y199000D02*
X225000D01*
X232500Y191500D01*
X235000D01*
X161000Y104000D02*
X162000D01*
X235000Y191500D02*
X260000D01*
X272000Y208500D02*
X285000D01*
X260000D02*
X272000D01*
Y185000D02*
Y208500D01*
Y185000D02*
X277000Y180000D01*
X281000D01*
X288000Y173000D01*
Y157000D02*
Y173000D01*
X283000Y152000D02*
X288000Y157000D01*
X283000Y143000D02*
Y152000D01*
X160000Y191500D02*
X185000D01*
Y208500D02*
X210000D01*
X160000D02*
X185000D01*
X357500Y24000D02*
X374000Y40500D01*
Y75000D01*
X369000Y80000D02*
X374000Y75000D01*
X331000Y177000D02*
X335000Y181000D01*
X322000Y177000D02*
X331000D01*
X314000Y169000D02*
X322000Y177000D01*
X335000Y181000D02*
Y191500D01*
X349000Y209000D02*
X349500Y208500D01*
X360000D01*
X339000Y143000D02*
X402000D01*
X435000Y110000D01*
X339500Y132500D02*
X405000D01*
X437500Y100000D01*
X339000Y132000D02*
X339500Y132500D01*
X472500Y120000D02*
Y132500D01*
X462500Y142500D02*
X472500Y132500D01*
X440000Y142500D02*
X462500D01*
X310000Y208500D02*
X335000D01*
X343500Y200000D01*
X392500D01*
X402500Y210000D01*
X410000D01*
X415000Y205000D01*
Y167500D02*
Y205000D01*
Y167500D02*
X440000Y142500D01*
X342500Y92500D02*
X350000D01*
X365000Y107500D01*
X420000D01*
X435000Y110000D02*
X450000D01*
X437500Y100000D02*
X450000D01*
X385000Y209500D02*
Y210000D01*
D16*
X288000Y21000D02*
X295000Y28000D01*
X115000Y21000D02*
X288000D01*
X108000Y28000D02*
X115000Y21000D01*
X108000Y28000D02*
Y44000D01*
X103000Y49000D02*
X108000Y44000D01*
X91000Y49000D02*
X103000D01*
X197000Y35000D02*
X208500Y23500D01*
X79000Y61000D02*
Y98000D01*
Y61000D02*
X91000Y49000D01*
X295000Y28000D02*
Y35000D01*
X234000Y119500D02*
Y140000D01*
Y119500D02*
X235000Y118500D01*
X79000Y98000D02*
Y151000D01*
X352000Y163250D02*
Y175000D01*
X360000Y183000D01*
Y191500D01*
X425000Y130000D02*
Y142500D01*
X405160Y162340D02*
X425000Y142500D01*
X405160Y162340D02*
Y200000D01*
X425000Y130000D02*
X425000Y130000D01*
X450000D01*
D17*
X120000Y195000D02*
D03*
X197000Y35000D02*
D03*
X295000Y35000D02*
D03*
D18*
X94600Y195000D02*
D03*
X95400Y35000D02*
D03*
X120800D02*
D03*
X146200D02*
D03*
X171600D02*
D03*
X269600Y35000D02*
D03*
X244200D02*
D03*
D19*
X352000Y163250D02*
D03*
X326600D02*
D03*
X301200D02*
D03*
X275800D02*
D03*
X250400D02*
D03*
X225000D02*
D03*
X199600D02*
D03*
X174200D02*
D03*
X148800D02*
D03*
X123400D02*
D03*
X98000D02*
D03*
Y66750D02*
D03*
X123400D02*
D03*
X148800D02*
D03*
X174200D02*
D03*
X199600D02*
D03*
X225000D02*
D03*
X250400D02*
D03*
X275800D02*
D03*
X301200D02*
D03*
X326600D02*
D03*
X352000D02*
D03*
D20*
X18000Y150000D02*
D03*
Y80000D02*
D03*
D21*
X45000Y140000D02*
D03*
Y90000D02*
D03*
D22*
X470000Y200000D02*
D03*
X30000D02*
D03*
Y30000D02*
D03*
X470000D02*
D03*
D23*
X298000Y181000D02*
D03*
X197000Y192000D02*
D03*
X206000Y106000D02*
D03*
X302000Y114000D02*
D03*
X305000Y91000D02*
D03*
X299000Y104000D02*
D03*
X283000Y86000D02*
D03*
X292000Y139000D02*
D03*
X305000Y133631D02*
D03*
X304501Y125000D02*
D03*
X223000Y209000D02*
D03*
X251803Y137197D02*
D03*
X248000Y144000D02*
D03*
X162000Y104000D02*
D03*
X283000Y143000D02*
D03*
X235000Y118500D02*
D03*
X234000Y140000D02*
D03*
X79000Y151000D02*
D03*
Y98000D02*
D03*
X349000Y209000D02*
D03*
X339000Y143000D02*
D03*
Y132000D02*
D03*
X472500Y120000D02*
D03*
X342500Y92500D02*
D03*
X420000Y107500D02*
D03*
X65000Y100000D02*
D03*
X425000Y130000D02*
D03*
M02*
