G04 Layer_Color=16711935*
%FSLAX44Y44*%
%MOMM*%
G71*
G01*
G75*
G04:AMPARAMS|DCode=37|XSize=1.2032mm|YSize=1.1032mm|CornerRadius=0.2141mm|HoleSize=0mm|Usage=FLASHONLY|Rotation=180.000|XOffset=0mm|YOffset=0mm|HoleType=Round|Shape=RoundedRectangle|*
%AMROUNDEDRECTD37*
21,1,1.2032,0.6750,0,0,180.0*
21,1,0.7750,1.1032,0,0,180.0*
1,1,0.4282,-0.3875,0.3375*
1,1,0.4282,0.3875,0.3375*
1,1,0.4282,0.3875,-0.3375*
1,1,0.4282,-0.3875,-0.3375*
%
%ADD37ROUNDEDRECTD37*%
%ADD39R,1.7532X0.8032*%
%ADD40R,2.0032X1.4032*%
%ADD41R,1.7032X1.7032*%
%ADD42C,1.7032*%
%ADD43O,2.0032X1.6032*%
G04:AMPARAMS|DCode=44|XSize=1.7032mm|YSize=2.1032mm|CornerRadius=0.4766mm|HoleSize=0mm|Usage=FLASHONLY|Rotation=90.000|XOffset=0mm|YOffset=0mm|HoleType=Round|Shape=RoundedRectangle|*
%AMROUNDEDRECTD44*
21,1,1.7032,1.1500,0,0,90.0*
21,1,0.7500,2.1032,0,0,90.0*
1,1,0.9532,0.5750,0.3750*
1,1,0.9532,0.5750,-0.3750*
1,1,0.9532,-0.5750,-0.3750*
1,1,0.9532,-0.5750,0.3750*
%
%ADD44ROUNDEDRECTD44*%
%ADD45C,1.6532*%
%ADD46C,3.8032*%
%ADD47R,1.4732X0.8382*%
G04:AMPARAMS|DCode=48|XSize=1.6032mm|YSize=1.2032mm|CornerRadius=0.2266mm|HoleSize=0mm|Usage=FLASHONLY|Rotation=180.000|XOffset=0mm|YOffset=0mm|HoleType=Round|Shape=RoundedRectangle|*
%AMROUNDEDRECTD48*
21,1,1.6032,0.7500,0,0,180.0*
21,1,1.1500,1.2032,0,0,180.0*
1,1,0.4532,-0.5750,0.3750*
1,1,0.4532,0.5750,0.3750*
1,1,0.4532,0.5750,-0.3750*
1,1,0.4532,-0.5750,-0.3750*
%
%ADD48ROUNDEDRECTD48*%
G04:AMPARAMS|DCode=49|XSize=1.6032mm|YSize=1.2032mm|CornerRadius=0.2266mm|HoleSize=0mm|Usage=FLASHONLY|Rotation=90.000|XOffset=0mm|YOffset=0mm|HoleType=Round|Shape=RoundedRectangle|*
%AMROUNDEDRECTD49*
21,1,1.6032,0.7500,0,0,90.0*
21,1,1.1500,1.2032,0,0,90.0*
1,1,0.4532,0.3750,0.5750*
1,1,0.4532,0.3750,-0.5750*
1,1,0.4532,-0.3750,-0.5750*
1,1,0.4532,-0.3750,0.5750*
%
%ADD49ROUNDEDRECTD49*%
G04:AMPARAMS|DCode=50|XSize=0.8032mm|YSize=1.2032mm|CornerRadius=0.1766mm|HoleSize=0mm|Usage=FLASHONLY|Rotation=90.000|XOffset=0mm|YOffset=0mm|HoleType=Round|Shape=RoundedRectangle|*
%AMROUNDEDRECTD50*
21,1,0.8032,0.8500,0,0,90.0*
21,1,0.4500,1.2032,0,0,90.0*
1,1,0.3532,0.4250,0.2250*
1,1,0.3532,0.4250,-0.2250*
1,1,0.3532,-0.4250,-0.2250*
1,1,0.3532,-0.4250,0.2250*
%
%ADD50ROUNDEDRECTD50*%
%ADD51R,2.1032X1.7032*%
%ADD52R,1.5532X0.6032*%
%ADD53O,2.0032X0.5532*%
%ADD54R,1.0668X1.7192*%
D37*
X350000Y116500D02*
D03*
Y133500D02*
D03*
X245000Y101500D02*
D03*
Y118500D02*
D03*
D39*
X450000Y130000D02*
D03*
Y120000D02*
D03*
Y110000D02*
D03*
Y100000D02*
D03*
D40*
X489000Y143000D02*
D03*
Y87000D02*
D03*
D41*
X146500Y105000D02*
D03*
X223500D02*
D03*
X120000Y195000D02*
D03*
X197000Y35000D02*
D03*
X295000Y35000D02*
D03*
D42*
X94600Y195000D02*
D03*
X95400Y35000D02*
D03*
X120800D02*
D03*
X146200D02*
D03*
X171600D02*
D03*
X269600Y35000D02*
D03*
X244200D02*
D03*
D43*
X352000Y163250D02*
D03*
X326600D02*
D03*
X301200D02*
D03*
X275800D02*
D03*
X250400D02*
D03*
X225000D02*
D03*
X199600D02*
D03*
X174200D02*
D03*
X148800D02*
D03*
X123400D02*
D03*
X98000D02*
D03*
Y66750D02*
D03*
X123400D02*
D03*
X148800D02*
D03*
X174200D02*
D03*
X199600D02*
D03*
X225000D02*
D03*
X250400D02*
D03*
X275800D02*
D03*
X301200D02*
D03*
X326600D02*
D03*
X352000D02*
D03*
D44*
X18000Y150000D02*
D03*
Y80000D02*
D03*
D45*
X45000Y140000D02*
D03*
Y90000D02*
D03*
D46*
X470000Y200000D02*
D03*
X30000D02*
D03*
Y30000D02*
D03*
X470000D02*
D03*
D47*
X346500Y40000D02*
D03*
X346500Y29920D02*
D03*
D48*
X368520Y134540D02*
D03*
Y116540D02*
D03*
D49*
X406420Y97340D02*
D03*
X388420D02*
D03*
D50*
X387020Y116040D02*
D03*
Y135040D02*
D03*
X410020Y125540D02*
D03*
D51*
X18000Y145500D02*
D03*
Y125000D02*
D03*
Y105000D02*
D03*
Y84500D02*
D03*
D52*
X45000Y115000D02*
D03*
Y121500D02*
D03*
Y128000D02*
D03*
Y108500D02*
D03*
Y102000D02*
D03*
D53*
X323500Y144250D02*
D03*
Y137750D02*
D03*
Y131250D02*
D03*
Y124750D02*
D03*
Y118250D02*
D03*
Y111750D02*
D03*
Y105250D02*
D03*
Y98750D02*
D03*
Y92250D02*
D03*
Y85750D02*
D03*
X266500Y144250D02*
D03*
Y137750D02*
D03*
Y118250D02*
D03*
Y111750D02*
D03*
Y105250D02*
D03*
Y98750D02*
D03*
Y92250D02*
D03*
Y85750D02*
D03*
Y131250D02*
D03*
Y124750D02*
D03*
D54*
X111390Y97500D02*
D03*
Y132526D02*
D03*
X93750Y97500D02*
D03*
Y132526D02*
D03*
M02*
