M48
;Layer_Color=9474304
;FILE_FORMAT=4:4
METRIC
;TYPE=PLATED
T1F00S00C0.3000
T3F00S00C0.7000
T4F00S00C0.8500
T5F00S00C0.9000
T6F00S00C3.2000
%
T01
X00162000Y00104000
X00206000Y00106000
X00235000Y00118500
X00234000Y00140000
X00248000Y00144000
X00251803Y00137197
X00283000Y00143000
X00292000Y00139000
X00305000Y00133631
X00304501Y00125000
X00302000Y00114000
X00299000Y00104000
X00305000Y00091000
X00283000Y00086000
X00342500Y00092500
X00339000Y00132000
Y00143000
X00349000Y00209000
X00298000Y00181000
X00223000Y00209000
X00197000Y00192000
X00425000Y00130000
X00420000Y00107500
X00472500Y00120000
X00079000Y00098000
X00065000Y00100000
X00079000Y00151000
T03
X00123400Y00066750
X00148800
X00174200
X00199600
X00225000
X00250400
X00275800
X00301200
X00326600
X00352000
Y00163250
X00326600
X00301200
X00275800
X00250400
X00225000
X00199600
X00174200
X00148800
X00123400
X00098000
Y00066750
T04
X00045000Y00090000
Y00140000
T05
X00120800Y00035000
X00146200
X00171600
X00197000
X00244200Y00035000
X00269600
X00295000
X00120000Y00195000
X00094600
X00095400Y00035000
T06
X00470000Y00030000
Y00200000
X00030000
Y00030000
M30
