G04 Layer_Color=8421504*
%FSLAX44Y44*%
%MOMM*%
G71*
G01*
G75*
G04:AMPARAMS|DCode=10|XSize=1mm|YSize=0.9mm|CornerRadius=0.1125mm|HoleSize=0mm|Usage=FLASHONLY|Rotation=180.000|XOffset=0mm|YOffset=0mm|HoleType=Round|Shape=RoundedRectangle|*
%AMROUNDEDRECTD10*
21,1,1.0000,0.6750,0,0,180.0*
21,1,0.7750,0.9000,0,0,180.0*
1,1,0.2250,-0.3875,0.3375*
1,1,0.2250,0.3875,0.3375*
1,1,0.2250,0.3875,-0.3375*
1,1,0.2250,-0.3875,-0.3375*
%
%ADD10ROUNDEDRECTD10*%
%ADD11R,0.7112X0.6096*%
%ADD12R,1.5500X0.6000*%
%ADD13R,1.8000X1.2000*%
D10*
X357500Y41000D02*
D03*
Y24000D02*
D03*
X235000Y208500D02*
D03*
Y191500D02*
D03*
X260000Y208500D02*
D03*
Y191500D02*
D03*
X285000D02*
D03*
Y208500D02*
D03*
X360000Y208500D02*
D03*
Y191500D02*
D03*
X185000Y191500D02*
D03*
Y208500D02*
D03*
X160000Y191500D02*
D03*
Y208500D02*
D03*
X210000Y191500D02*
D03*
Y208500D02*
D03*
X335000D02*
D03*
Y191500D02*
D03*
X310000D02*
D03*
Y208500D02*
D03*
D11*
X385000Y209500D02*
D03*
Y190348D02*
D03*
X405160Y200000D02*
D03*
D12*
X450000Y130000D02*
D03*
Y120000D02*
D03*
Y110000D02*
D03*
Y100000D02*
D03*
D13*
X489000Y143000D02*
D03*
Y87000D02*
D03*
M02*
