G04 Layer_Color=32896*
%FSLAX44Y44*%
%MOMM*%
G71*
G01*
G75*
%ADD15C,0.2500*%
%ADD16C,0.5000*%
%ADD32C,0.2000*%
%ADD33C,0.3000*%
%ADD34C,0.1500*%
%ADD35C,0.1270*%
%ADD55C,0.6000*%
G36*
X391280Y213340D02*
X391290Y213260D01*
X391300Y213200D01*
X391310Y213190D01*
Y213180D01*
X391320Y213090D01*
Y213010D01*
X391330Y212950D01*
Y212940D01*
Y212930D01*
X391340Y212831D01*
Y212751D01*
X391350Y212691D01*
Y212681D01*
Y212671D01*
Y212581D01*
Y212511D01*
Y212451D01*
Y212441D01*
Y212431D01*
Y212251D01*
X391340Y212172D01*
Y212092D01*
Y212032D01*
X391330Y211982D01*
Y211952D01*
Y211942D01*
X391310Y211782D01*
X391300Y211702D01*
X391290Y211643D01*
X391280Y211583D01*
X391270Y211543D01*
X391260Y211513D01*
Y211503D01*
X385720D01*
X385940Y211154D01*
X386159Y210814D01*
X386359Y210485D01*
X386558Y210175D01*
X386758Y209866D01*
X386938Y209576D01*
X387118Y209287D01*
X387297Y209017D01*
X387457Y208758D01*
X387617Y208508D01*
X387766Y208269D01*
X387916Y208039D01*
X388046Y207829D01*
X388176Y207620D01*
X388305Y207430D01*
X388415Y207241D01*
X388525Y207071D01*
X388635Y206911D01*
X388725Y206761D01*
X388815Y206622D01*
X388894Y206492D01*
X388974Y206382D01*
X389034Y206272D01*
X389094Y206182D01*
X389154Y206092D01*
X389194Y206023D01*
X389234Y205963D01*
X389264Y205913D01*
X389294Y205873D01*
X389314Y205843D01*
X389324Y205833D01*
Y205823D01*
X389294Y205773D01*
X389274Y205753D01*
Y205743D01*
Y205733D01*
X389254Y205713D01*
X389234Y205683D01*
X389214Y205643D01*
X389184Y205603D01*
X389164Y205563D01*
X389154Y205543D01*
X389144Y205534D01*
X388984Y205563D01*
X388854Y205593D01*
X388795Y205603D01*
X388755D01*
X388725Y205613D01*
X388715D01*
X388545Y205643D01*
X388475Y205653D01*
X388405Y205663D01*
X388345D01*
X388305Y205673D01*
X388265D01*
X388106Y205683D01*
X387976D01*
X387916Y205693D01*
X387836D01*
X387677Y205703D01*
X387397D01*
X387137Y205693D01*
X386898Y205683D01*
X386678Y205653D01*
X386489Y205623D01*
X386329Y205593D01*
X386269Y205583D01*
X386209Y205573D01*
X386169Y205563D01*
X386139Y205553D01*
X386119Y205543D01*
X386109D01*
X385900Y205474D01*
X385710Y205394D01*
X385530Y205314D01*
X385381Y205234D01*
X385261Y205164D01*
X385161Y205104D01*
X385101Y205064D01*
X385081Y205054D01*
X384921Y204925D01*
X384792Y204795D01*
X384682Y204655D01*
X384582Y204525D01*
X384512Y204415D01*
X384462Y204316D01*
X384432Y204256D01*
X384422Y204246D01*
Y204236D01*
X384342Y204046D01*
X384293Y203846D01*
X384253Y203647D01*
X384223Y203467D01*
X384203Y203307D01*
Y203238D01*
X384193Y203178D01*
Y203138D01*
Y203098D01*
Y203078D01*
Y203068D01*
Y202908D01*
X384203Y202749D01*
X384223Y202609D01*
X384233Y202489D01*
X384253Y202379D01*
X384273Y202309D01*
X384283Y202259D01*
Y202239D01*
X384313Y202110D01*
X384352Y201980D01*
X384382Y201870D01*
X384422Y201770D01*
X384462Y201680D01*
X384482Y201621D01*
X384502Y201581D01*
X384512Y201571D01*
X384572Y201461D01*
X384632Y201351D01*
X384702Y201261D01*
X384752Y201171D01*
X384802Y201111D01*
X384842Y201052D01*
X384871Y201021D01*
X384882Y201012D01*
X385041Y200832D01*
X385121Y200752D01*
X385201Y200692D01*
X385261Y200632D01*
X385311Y200592D01*
X385351Y200572D01*
X385361Y200562D01*
X385560Y200423D01*
X385660Y200363D01*
X385750Y200323D01*
X385820Y200283D01*
X385890Y200253D01*
X385930Y200233D01*
X385940Y200223D01*
X386169Y200133D01*
X386279Y200093D01*
X386389Y200063D01*
X386479Y200033D01*
X386549Y200013D01*
X386589Y199993D01*
X386608D01*
X386878Y199944D01*
X387008Y199914D01*
X387118Y199904D01*
X387217Y199884D01*
X387287Y199874D01*
X387337Y199864D01*
X387357D01*
X387637Y199844D01*
X387776Y199834D01*
X387896D01*
X388006Y199824D01*
X388335D01*
X388505Y199834D01*
X388655D01*
X388795Y199844D01*
X388914Y199854D01*
X388994D01*
X389054Y199864D01*
X389074D01*
X389234Y199884D01*
X389384Y199904D01*
X389513Y199923D01*
X389643Y199944D01*
X389743Y199963D01*
X389813Y199983D01*
X389863Y199993D01*
X389883D01*
X390162Y200073D01*
X390282Y200103D01*
X390392Y200133D01*
X390491Y200163D01*
X390561Y200183D01*
X390601Y200203D01*
X390621D01*
X390881Y200293D01*
X391001Y200333D01*
X391110Y200373D01*
X391200Y200403D01*
X391270Y200433D01*
X391310Y200443D01*
X391330Y200453D01*
X391420Y200293D01*
X391460Y200213D01*
X391490Y200153D01*
X391520Y200093D01*
X391540Y200053D01*
X391550Y200023D01*
X391560Y200013D01*
X391629Y199854D01*
X391659Y199774D01*
X391689Y199704D01*
X391719Y199644D01*
X391729Y199604D01*
X391749Y199574D01*
Y199564D01*
X391809Y199404D01*
X391839Y199325D01*
X391859Y199255D01*
X391879Y199195D01*
X391899Y199145D01*
X391909Y199115D01*
Y199105D01*
X391949Y198935D01*
X391959Y198855D01*
X391979Y198785D01*
X391989Y198726D01*
Y198676D01*
X391999Y198646D01*
Y198636D01*
X391659Y198506D01*
X391500Y198456D01*
X391360Y198406D01*
X391240Y198366D01*
X391140Y198346D01*
X391081Y198326D01*
X391071Y198316D01*
X391060D01*
X390721Y198227D01*
X390561Y198187D01*
X390412Y198157D01*
X390292Y198137D01*
X390192Y198117D01*
X390132Y198097D01*
X390112D01*
X389763Y198047D01*
X389593Y198017D01*
X389443Y198007D01*
X389324Y197987D01*
X389224Y197977D01*
X389184D01*
X389154Y197967D01*
X389134D01*
X388944Y197957D01*
X388755Y197947D01*
X388575Y197937D01*
X388415D01*
X388285Y197927D01*
X387856D01*
X387637Y197937D01*
X387427Y197947D01*
X387247Y197967D01*
X387098Y197977D01*
X387038D01*
X386978Y197987D01*
X386938D01*
X386908Y197997D01*
X386878D01*
X386658Y198037D01*
X386449Y198077D01*
X386259Y198117D01*
X386089Y198147D01*
X385940Y198187D01*
X385830Y198216D01*
X385790Y198227D01*
X385760D01*
X385750Y198237D01*
X385740D01*
X385540Y198296D01*
X385351Y198366D01*
X385171Y198436D01*
X385011Y198496D01*
X384882Y198556D01*
X384782Y198596D01*
X384752Y198616D01*
X384722Y198626D01*
X384712Y198636D01*
X384702D01*
X384532Y198726D01*
X384362Y198825D01*
X384213Y198925D01*
X384073Y199015D01*
X383963Y199095D01*
X383873Y199155D01*
X383823Y199205D01*
X383803Y199215D01*
X383654Y199345D01*
X383514Y199474D01*
X383394Y199594D01*
X383284Y199704D01*
X383195Y199804D01*
X383125Y199884D01*
X383075Y199933D01*
X383065Y199953D01*
X382955Y200113D01*
X382845Y200273D01*
X382755Y200433D01*
X382665Y200572D01*
X382606Y200692D01*
X382546Y200792D01*
X382526Y200822D01*
X382516Y200852D01*
X382506Y200862D01*
Y200872D01*
X382416Y201061D01*
X382346Y201261D01*
X382286Y201451D01*
X382226Y201621D01*
X382186Y201760D01*
X382176Y201830D01*
X382156Y201880D01*
X382146Y201920D01*
Y201950D01*
X382136Y201970D01*
Y201980D01*
X382096Y202209D01*
X382066Y202429D01*
X382047Y202649D01*
X382027Y202848D01*
Y203018D01*
X382017Y203088D01*
Y203148D01*
Y203198D01*
Y203238D01*
Y203258D01*
Y203267D01*
X382027Y203527D01*
X382037Y203637D01*
X382047Y203747D01*
X382057Y203827D01*
X382066Y203896D01*
X382076Y203946D01*
Y203956D01*
X382126Y204216D01*
X382156Y204336D01*
X382186Y204436D01*
X382216Y204525D01*
X382236Y204595D01*
X382246Y204635D01*
X382256Y204655D01*
X382356Y204905D01*
X382406Y205024D01*
X382456Y205124D01*
X382506Y205204D01*
X382536Y205264D01*
X382556Y205314D01*
X382566Y205324D01*
X382635Y205444D01*
X382705Y205553D01*
X382775Y205663D01*
X382845Y205743D01*
X382895Y205823D01*
X382945Y205873D01*
X382975Y205913D01*
X382985Y205923D01*
X383175Y206132D01*
X383264Y206222D01*
X383344Y206292D01*
X383424Y206362D01*
X383484Y206412D01*
X383524Y206442D01*
X383534Y206452D01*
X383764Y206612D01*
X383873Y206681D01*
X383983Y206741D01*
X384073Y206791D01*
X384143Y206831D01*
X384183Y206851D01*
X384203Y206861D01*
X384492Y206971D01*
X384632Y207021D01*
X384752Y207051D01*
X384862Y207081D01*
X384941Y207101D01*
X385001Y207121D01*
X385021D01*
X385351Y207171D01*
X385510Y207190D01*
X385660Y207201D01*
X385790Y207211D01*
X386219D01*
X386269Y207201D01*
X386289Y207190D01*
X386299D01*
X386059Y207560D01*
X385820Y207919D01*
X385590Y208259D01*
X385371Y208588D01*
X385161Y208908D01*
X384961Y209217D01*
X384762Y209516D01*
X384572Y209806D01*
X384392Y210075D01*
X384223Y210345D01*
X384053Y210595D01*
X383893Y210834D01*
X383744Y211064D01*
X383604Y211273D01*
X383474Y211483D01*
X383344Y211673D01*
X383224Y211852D01*
X383115Y212022D01*
X383005Y212182D01*
X382915Y212331D01*
X382825Y212461D01*
X382745Y212581D01*
X382665Y212701D01*
X382606Y212801D01*
X382546Y212880D01*
X382496Y212960D01*
X382456Y213020D01*
X382416Y213080D01*
X382386Y213120D01*
X382376Y213150D01*
X382356Y213160D01*
Y213170D01*
X382426Y213280D01*
X382476Y213360D01*
X382506Y213410D01*
X382516Y213419D01*
X391260D01*
X391280Y213340D01*
D02*
G37*
G36*
X59000Y25200D02*
X57950Y22850D01*
X57300Y18950D01*
X55350Y17000D01*
Y15050D01*
X50800Y10500D01*
Y9850D01*
X46250Y5300D01*
X44300D01*
X42350Y3350D01*
X39750D01*
X37800Y1400D01*
X33250D01*
X32600Y750D01*
X30000D01*
Y9850D01*
X33250D01*
X34550Y11150D01*
X38450D01*
X42350Y15050D01*
X43000D01*
X47550Y19600D01*
Y20900D01*
X49500Y22850D01*
Y29500D01*
X50000Y30000D01*
X59000D01*
Y25200D01*
D02*
G37*
G36*
X499000D02*
X497950Y22850D01*
X497300Y18950D01*
X495350Y17000D01*
Y15050D01*
X490800Y10500D01*
Y9850D01*
X486250Y5300D01*
X484300D01*
X482350Y3350D01*
X479750D01*
X477800Y1400D01*
X473250D01*
X472600Y750D01*
X470000D01*
Y9850D01*
X473250D01*
X474550Y11150D01*
X478450D01*
X482350Y15050D01*
X483000D01*
X487550Y19600D01*
Y20900D01*
X489500Y22850D01*
Y29500D01*
X490000Y30000D01*
X499000D01*
Y25200D01*
D02*
G37*
G36*
X410606Y210654D02*
X410666Y210644D01*
X410865D01*
X410905Y210634D01*
X410965D01*
X411095Y210624D01*
X411205Y210604D01*
X411294Y210595D01*
X411364D01*
X411424Y210585D01*
X411474Y210574D01*
X411504D01*
Y210435D01*
Y210325D01*
Y210285D01*
Y210255D01*
Y210235D01*
Y210225D01*
Y210125D01*
Y210035D01*
Y209986D01*
Y209976D01*
Y209966D01*
Y209806D01*
Y209666D01*
Y209556D01*
Y209466D01*
Y209407D01*
Y209357D01*
Y209337D01*
Y209327D01*
Y209287D01*
Y209237D01*
Y209117D01*
Y208977D01*
Y208828D01*
Y208678D01*
Y208558D01*
Y208518D01*
Y208478D01*
Y208458D01*
Y208448D01*
Y208269D01*
Y208179D01*
Y208099D01*
Y208029D01*
Y207979D01*
Y207939D01*
Y207929D01*
Y207690D01*
Y207570D01*
Y207460D01*
Y207370D01*
Y207300D01*
Y207250D01*
Y207230D01*
Y207031D01*
Y206831D01*
Y206632D01*
Y206442D01*
Y206282D01*
Y206212D01*
Y206152D01*
Y206112D01*
Y206073D01*
Y206053D01*
Y206043D01*
Y205773D01*
Y205504D01*
Y205224D01*
Y204974D01*
Y204865D01*
Y204755D01*
Y204665D01*
Y204585D01*
Y204515D01*
Y204465D01*
Y204436D01*
Y204426D01*
X411494Y204116D01*
X411484Y203836D01*
X411464Y203587D01*
X411444Y203367D01*
X411434Y203267D01*
X411424Y203178D01*
Y203108D01*
X411414Y203048D01*
X411404Y202998D01*
X411394Y202958D01*
Y202938D01*
Y202928D01*
X411354Y202689D01*
X411304Y202459D01*
X411255Y202259D01*
X411205Y202090D01*
X411165Y201950D01*
X411125Y201840D01*
X411115Y201800D01*
X411105Y201770D01*
X411095Y201760D01*
Y201750D01*
X411015Y201571D01*
X410935Y201391D01*
X410855Y201241D01*
X410775Y201111D01*
X410705Y201002D01*
X410656Y200922D01*
X410616Y200872D01*
X410606Y200852D01*
X410496Y200712D01*
X410386Y200582D01*
X410286Y200462D01*
X410186Y200363D01*
X410107Y200283D01*
X410037Y200223D01*
X409997Y200183D01*
X409977Y200173D01*
X409837Y200073D01*
X409707Y199983D01*
X409577Y199904D01*
X409458Y199834D01*
X409358Y199784D01*
X409278Y199734D01*
X409228Y199714D01*
X409208Y199704D01*
X408889Y199584D01*
X408739Y199534D01*
X408599Y199494D01*
X408489Y199464D01*
X408400Y199444D01*
X408340Y199424D01*
X408320D01*
X408140Y199394D01*
X407970Y199364D01*
X407801Y199345D01*
X407651Y199325D01*
X407531Y199305D01*
X407431Y199295D01*
X407401D01*
X407371Y199285D01*
X407351D01*
X407162Y199275D01*
X406972Y199265D01*
X406802Y199255D01*
X406643D01*
X406503Y199245D01*
X406104D01*
X405904Y199255D01*
X405724D01*
X405555Y199265D01*
X405415Y199275D01*
X405305D01*
X405265Y199285D01*
X405215D01*
X405016Y199305D01*
X404826Y199335D01*
X404646Y199354D01*
X404487Y199384D01*
X404347Y199404D01*
X404247Y199424D01*
X404207D01*
X404177Y199434D01*
X404157D01*
X403957Y199474D01*
X403778Y199504D01*
X403608Y199544D01*
X403468Y199574D01*
X403339Y199594D01*
X403249Y199614D01*
X403189Y199634D01*
X403169D01*
X403009Y199674D01*
X402859Y199714D01*
X402720Y199754D01*
X402590Y199784D01*
X402490Y199804D01*
X402420Y199824D01*
X402370Y199844D01*
X402350D01*
Y199963D01*
Y200083D01*
Y200183D01*
Y200273D01*
Y200353D01*
Y200403D01*
Y200443D01*
Y200453D01*
Y200632D01*
Y200712D01*
Y200782D01*
Y200832D01*
Y200882D01*
Y200902D01*
Y200912D01*
Y201081D01*
Y201231D01*
Y201361D01*
Y201461D01*
Y201551D01*
Y201600D01*
Y201640D01*
Y201650D01*
Y201840D01*
Y201940D01*
Y202030D01*
Y202100D01*
Y202169D01*
Y202209D01*
Y202219D01*
Y202309D01*
Y202389D01*
Y202439D01*
Y202449D01*
Y202459D01*
Y202559D01*
Y202649D01*
Y202689D01*
Y202719D01*
Y202738D01*
Y202749D01*
Y202868D01*
Y202988D01*
Y203038D01*
Y203078D01*
Y203098D01*
Y203108D01*
Y203258D01*
Y203407D01*
Y203457D01*
Y203507D01*
Y203537D01*
Y203547D01*
Y203697D01*
Y203857D01*
Y204006D01*
Y204146D01*
Y204276D01*
Y204366D01*
Y204405D01*
Y204436D01*
Y204445D01*
Y204455D01*
Y204665D01*
Y204875D01*
Y205084D01*
Y205274D01*
Y205444D01*
Y205513D01*
Y205573D01*
Y205623D01*
Y205663D01*
Y205683D01*
Y205693D01*
Y206033D01*
Y206382D01*
Y206731D01*
Y206891D01*
Y207051D01*
Y207201D01*
Y207330D01*
Y207460D01*
Y207560D01*
Y207640D01*
Y207710D01*
Y207750D01*
Y207759D01*
Y208229D01*
Y208708D01*
Y209177D01*
Y209407D01*
Y209616D01*
Y209816D01*
Y209995D01*
Y210165D01*
Y210305D01*
Y210415D01*
Y210505D01*
Y210555D01*
Y210574D01*
X402440Y210595D01*
X402520Y210604D01*
X402580Y210614D01*
X402600D01*
X402700Y210624D01*
X402790D01*
X402830Y210634D01*
X402879D01*
X402979Y210644D01*
X403149D01*
X403239Y210654D01*
X403319Y210664D01*
X403498D01*
X403578Y210654D01*
X403638Y210644D01*
X403838D01*
X403908Y210634D01*
X403928D01*
X404037Y210624D01*
X404127D01*
X404187Y210614D01*
X404207D01*
X404307Y210604D01*
X404387Y210585D01*
X404437Y210574D01*
X404457D01*
Y210465D01*
Y210365D01*
Y210275D01*
Y210195D01*
Y210135D01*
Y210085D01*
Y210055D01*
Y210046D01*
Y209896D01*
Y209826D01*
Y209766D01*
Y209716D01*
Y209676D01*
Y209656D01*
Y209646D01*
Y209457D01*
Y209287D01*
Y209147D01*
Y209047D01*
Y208957D01*
Y208908D01*
Y208868D01*
Y208858D01*
Y208758D01*
Y208628D01*
Y208498D01*
Y208368D01*
Y208249D01*
Y208149D01*
Y208109D01*
Y208079D01*
Y208069D01*
Y208059D01*
Y207949D01*
Y207849D01*
Y207809D01*
Y207780D01*
Y207759D01*
Y207750D01*
Y207620D01*
Y207500D01*
Y207450D01*
Y207410D01*
Y207380D01*
Y207370D01*
Y207241D01*
Y207111D01*
Y206981D01*
Y206861D01*
Y206751D01*
Y206672D01*
Y206612D01*
Y206602D01*
Y206592D01*
Y206412D01*
Y206232D01*
Y206053D01*
Y205883D01*
Y205743D01*
Y205623D01*
Y205583D01*
Y205553D01*
Y205534D01*
Y205523D01*
Y205224D01*
Y204915D01*
Y204615D01*
Y204326D01*
Y204196D01*
Y204076D01*
Y203976D01*
Y203886D01*
Y203807D01*
Y203757D01*
Y203717D01*
Y203707D01*
Y203298D01*
Y202888D01*
Y202479D01*
Y202279D01*
Y202100D01*
Y201920D01*
Y201770D01*
Y201621D01*
Y201501D01*
Y201411D01*
Y201331D01*
Y201291D01*
Y201271D01*
X404756Y201191D01*
X404906Y201161D01*
X405036Y201141D01*
X405155Y201121D01*
X405245Y201101D01*
X405305Y201091D01*
X405325D01*
X405674Y201061D01*
X405844Y201052D01*
X406004D01*
X406144Y201042D01*
X406343D01*
X406603Y201052D01*
X406723D01*
X406822Y201061D01*
X406912D01*
X406972Y201071D01*
X407032D01*
X407152Y201091D01*
X407262Y201111D01*
X407361Y201131D01*
X407451Y201151D01*
X407531Y201161D01*
X407581Y201181D01*
X407621Y201191D01*
X407631D01*
X407831Y201251D01*
X407920Y201291D01*
X408000Y201321D01*
X408070Y201351D01*
X408120Y201381D01*
X408150Y201391D01*
X408160Y201401D01*
X408320Y201511D01*
X408400Y201561D01*
X408460Y201611D01*
X408509Y201650D01*
X408549Y201690D01*
X408579Y201710D01*
X408589Y201720D01*
X408719Y201880D01*
X408829Y202030D01*
X408869Y202100D01*
X408899Y202150D01*
X408919Y202180D01*
X408929Y202190D01*
X409029Y202399D01*
X409068Y202499D01*
X409108Y202589D01*
X409128Y202679D01*
X409148Y202738D01*
X409168Y202778D01*
Y202798D01*
X409238Y203058D01*
X409258Y203188D01*
X409278Y203307D01*
X409298Y203407D01*
X409308Y203487D01*
X409318Y203537D01*
Y203557D01*
X409338Y203886D01*
X409348Y204046D01*
Y204196D01*
X409358Y204326D01*
Y204415D01*
Y204455D01*
Y204485D01*
Y204495D01*
Y204505D01*
Y204645D01*
Y204755D01*
Y204795D01*
Y204825D01*
Y204845D01*
Y204855D01*
Y204965D01*
Y205044D01*
Y205104D01*
Y205114D01*
Y205124D01*
Y205284D01*
Y205414D01*
Y205513D01*
Y205603D01*
Y205663D01*
Y205713D01*
Y205733D01*
Y205743D01*
Y205783D01*
Y205833D01*
Y205953D01*
Y206092D01*
Y206242D01*
Y206382D01*
Y206502D01*
Y206542D01*
Y206582D01*
Y206602D01*
Y206612D01*
Y206781D01*
Y206871D01*
Y206951D01*
Y207021D01*
Y207071D01*
Y207111D01*
Y207121D01*
Y207350D01*
Y207470D01*
Y207570D01*
Y207660D01*
Y207740D01*
Y207780D01*
Y207799D01*
Y207999D01*
Y208199D01*
Y208398D01*
Y208578D01*
Y208738D01*
Y208808D01*
Y208868D01*
Y208918D01*
Y208947D01*
Y208967D01*
Y208977D01*
Y209247D01*
Y209516D01*
Y209786D01*
Y210035D01*
Y210145D01*
Y210255D01*
Y210345D01*
Y210425D01*
Y210485D01*
Y210535D01*
Y210564D01*
Y210574D01*
X409458Y210595D01*
X409538Y210604D01*
X409598Y210614D01*
X409617D01*
X409717Y210624D01*
X409807D01*
X409877Y210634D01*
X409897D01*
X410007Y210644D01*
X410196D01*
X410286Y210654D01*
X410366Y210664D01*
X410526D01*
X410606Y210654D01*
D02*
G37*
G36*
X377325Y215246D02*
X377505D01*
X377694Y215236D01*
X377884Y215226D01*
X378064Y215216D01*
X378213Y215206D01*
X378353Y215196D01*
X378453D01*
X378493Y215186D01*
X378543D01*
X378722Y215176D01*
X378892Y215156D01*
X379042Y215146D01*
X379172Y215136D01*
X379272Y215126D01*
X379351Y215116D01*
X379401Y215106D01*
X379421D01*
X379711Y215077D01*
X379841Y215067D01*
X379970Y215056D01*
X380070Y215047D01*
X380150Y215037D01*
X380200Y215027D01*
X380320D01*
Y214847D01*
Y214677D01*
Y214527D01*
Y214398D01*
Y214288D01*
Y214218D01*
Y214168D01*
Y214148D01*
Y214008D01*
Y213889D01*
Y213769D01*
Y213669D01*
Y213589D01*
Y213529D01*
Y213489D01*
Y213479D01*
Y213230D01*
Y213020D01*
Y212840D01*
Y212691D01*
Y212571D01*
Y212491D01*
Y212441D01*
Y212421D01*
Y212281D01*
Y212142D01*
Y212002D01*
Y211872D01*
Y211752D01*
Y211663D01*
Y211603D01*
Y211593D01*
Y211583D01*
Y211463D01*
Y211353D01*
Y211313D01*
Y211273D01*
Y211253D01*
Y211243D01*
Y211104D01*
Y210964D01*
Y210914D01*
Y210864D01*
Y210834D01*
Y210824D01*
Y210644D01*
Y210564D01*
Y210485D01*
Y210415D01*
Y210365D01*
Y210325D01*
Y210315D01*
Y210095D01*
Y209986D01*
Y209886D01*
Y209796D01*
Y209726D01*
Y209686D01*
Y209666D01*
Y209447D01*
Y209227D01*
Y209007D01*
Y208798D01*
Y208618D01*
Y208538D01*
Y208478D01*
Y208418D01*
Y208378D01*
Y208358D01*
Y208349D01*
Y208059D01*
Y207750D01*
Y207460D01*
Y207190D01*
Y207061D01*
Y206951D01*
Y206851D01*
Y206761D01*
Y206691D01*
Y206632D01*
Y206602D01*
Y206592D01*
Y206352D01*
Y206092D01*
Y205583D01*
Y205074D01*
Y204835D01*
Y204605D01*
Y204386D01*
Y204186D01*
Y204016D01*
Y203857D01*
Y203737D01*
Y203647D01*
Y203587D01*
Y203577D01*
Y203567D01*
Y203238D01*
Y202898D01*
Y202199D01*
Y201860D01*
Y201521D01*
Y201191D01*
Y200882D01*
Y200592D01*
Y200333D01*
Y200093D01*
Y199894D01*
Y199804D01*
Y199734D01*
Y199664D01*
Y199604D01*
Y199564D01*
Y199534D01*
Y199514D01*
Y199504D01*
X380040Y199464D01*
X379910Y199444D01*
X379781Y199434D01*
X379681Y199424D01*
X379591Y199414D01*
X379541Y199404D01*
X379521D01*
X379202Y199375D01*
X379042Y199364D01*
X378902Y199354D01*
X378782Y199345D01*
X378683Y199335D01*
X378653Y199325D01*
X378603D01*
X378423Y199305D01*
X378243Y199295D01*
X378074Y199285D01*
X377924Y199275D01*
X377794Y199265D01*
X377694Y199255D01*
X377415D01*
X377235Y199245D01*
X376596D01*
X376217Y199255D01*
X375858Y199265D01*
X375508Y199295D01*
X375179Y199325D01*
X374859Y199354D01*
X374570Y199404D01*
X374290Y199444D01*
X374041Y199494D01*
X373811Y199534D01*
X373612Y199584D01*
X373432Y199624D01*
X373282Y199654D01*
X373172Y199694D01*
X373083Y199714D01*
X373033Y199724D01*
X373013Y199734D01*
X372733Y199834D01*
X372464Y199933D01*
X372204Y200053D01*
X371965Y200173D01*
X371735Y200293D01*
X371525Y200413D01*
X371336Y200542D01*
X371156Y200652D01*
X370996Y200772D01*
X370857Y200872D01*
X370737Y200972D01*
X370637Y201052D01*
X370557Y201121D01*
X370507Y201171D01*
X370467Y201201D01*
X370457Y201211D01*
X370268Y201401D01*
X370088Y201600D01*
X369928Y201800D01*
X369779Y202010D01*
X369639Y202219D01*
X369509Y202429D01*
X369389Y202629D01*
X369289Y202818D01*
X369199Y202998D01*
X369120Y203168D01*
X369050Y203317D01*
X369000Y203447D01*
X368950Y203547D01*
X368920Y203627D01*
X368910Y203677D01*
X368900Y203697D01*
X368810Y203986D01*
X368730Y204286D01*
X368661Y204585D01*
X368601Y204885D01*
X368551Y205184D01*
X368511Y205474D01*
X368471Y205763D01*
X368441Y206033D01*
X368421Y206282D01*
X368411Y206512D01*
X368401Y206711D01*
X368391Y206891D01*
X368381Y207031D01*
Y207091D01*
Y207141D01*
Y207181D01*
Y207211D01*
Y207220D01*
Y207230D01*
X368391Y207590D01*
X368401Y207939D01*
X368431Y208269D01*
X368461Y208588D01*
X368501Y208888D01*
X368541Y209177D01*
X368591Y209436D01*
X368630Y209676D01*
X368680Y209896D01*
X368730Y210095D01*
X368770Y210265D01*
X368810Y210405D01*
X368840Y210515D01*
X368870Y210595D01*
X368880Y210644D01*
X368890Y210664D01*
X368990Y210934D01*
X369100Y211193D01*
X369220Y211443D01*
X369339Y211682D01*
X369469Y211902D01*
X369589Y212112D01*
X369719Y212301D01*
X369838Y212481D01*
X369958Y212641D01*
X370058Y212781D01*
X370158Y212900D01*
X370238Y213000D01*
X370308Y213080D01*
X370367Y213140D01*
X370397Y213180D01*
X370407Y213190D01*
X370607Y213379D01*
X370807Y213559D01*
X371016Y213719D01*
X371236Y213869D01*
X371446Y214008D01*
X371655Y214138D01*
X371865Y214248D01*
X372054Y214358D01*
X372244Y214448D01*
X372404Y214517D01*
X372564Y214587D01*
X372693Y214637D01*
X372793Y214687D01*
X372873Y214717D01*
X372923Y214727D01*
X372943Y214737D01*
X373232Y214827D01*
X373532Y214907D01*
X373841Y214977D01*
X374141Y215037D01*
X374450Y215086D01*
X374740Y215126D01*
X375029Y215166D01*
X375299Y215196D01*
X375548Y215216D01*
X375778Y215226D01*
X375987Y215236D01*
X376167Y215246D01*
X376307Y215256D01*
X377195D01*
X377325Y215246D01*
D02*
G37*
G36*
X396710Y210814D02*
X397040Y210794D01*
X397200Y210774D01*
X397349Y210754D01*
X397479Y210734D01*
X397609Y210724D01*
X397719Y210704D01*
X397818Y210684D01*
X397908Y210664D01*
X397978Y210644D01*
X398038Y210634D01*
X398078Y210624D01*
X398108Y210614D01*
X398118D01*
X398397Y210525D01*
X398647Y210425D01*
X398867Y210315D01*
X399056Y210205D01*
X399206Y210115D01*
X399266Y210075D01*
X399316Y210035D01*
X399366Y210005D01*
X399396Y209986D01*
X399406Y209976D01*
X399416Y209966D01*
X399605Y209796D01*
X399765Y209626D01*
X399895Y209457D01*
X400005Y209297D01*
X400094Y209157D01*
X400154Y209047D01*
X400174Y209007D01*
X400194Y208977D01*
X400204Y208957D01*
Y208947D01*
X400294Y208728D01*
X400354Y208498D01*
X400404Y208279D01*
X400434Y208069D01*
X400454Y207899D01*
Y207819D01*
X400464Y207759D01*
Y207700D01*
Y207660D01*
Y207640D01*
Y207630D01*
X400454Y207430D01*
X400444Y207250D01*
X400414Y207091D01*
X400384Y206941D01*
X400364Y206821D01*
X400334Y206741D01*
X400324Y206681D01*
X400314Y206672D01*
Y206661D01*
X400244Y206502D01*
X400174Y206352D01*
X400094Y206222D01*
X400014Y206112D01*
X399945Y206023D01*
X399885Y205953D01*
X399845Y205913D01*
X399835Y205893D01*
X399715Y205773D01*
X399575Y205663D01*
X399446Y205563D01*
X399316Y205474D01*
X399196Y205394D01*
X399106Y205334D01*
X399046Y205294D01*
X399036Y205284D01*
X399026D01*
X398827Y205174D01*
X398627Y205074D01*
X398427Y204974D01*
X398238Y204895D01*
X398078Y204835D01*
X398008Y204805D01*
X397948Y204775D01*
X397908Y204765D01*
X397868Y204745D01*
X397848Y204735D01*
X397838D01*
X397759Y204705D01*
X397689Y204675D01*
X397649Y204665D01*
X397629Y204655D01*
X397609Y204645D01*
X397599Y204635D01*
X397579D01*
X397539Y204615D01*
X397459Y204585D01*
X397359Y204545D01*
X397259Y204515D01*
X397170Y204475D01*
X397100Y204455D01*
X397090Y204445D01*
X397080D01*
X396930Y204396D01*
X396800Y204356D01*
X396740Y204346D01*
X396701Y204326D01*
X396680Y204316D01*
X396670D01*
X396531Y204266D01*
X396411Y204226D01*
X396371Y204216D01*
X396331Y204196D01*
X396311Y204186D01*
X396301D01*
X396171Y204126D01*
X396072Y204076D01*
X396032Y204056D01*
X396002Y204036D01*
X395992Y204026D01*
X395982D01*
X395872Y203956D01*
X395772Y203906D01*
X395732Y203876D01*
X395702Y203867D01*
X395692Y203846D01*
X395682D01*
X395582Y203767D01*
X395513Y203697D01*
X395463Y203647D01*
X395443Y203637D01*
Y203627D01*
X395363Y203537D01*
X395303Y203457D01*
X395263Y203387D01*
X395253Y203377D01*
Y203367D01*
X395193Y203267D01*
X395153Y203168D01*
X395143Y203118D01*
X395133Y203088D01*
X395123Y203068D01*
Y203058D01*
X395103Y202918D01*
X395093Y202788D01*
Y202729D01*
Y202689D01*
Y202659D01*
Y202649D01*
X395103Y202509D01*
X395113Y202389D01*
X395123Y202349D01*
Y202309D01*
X395133Y202289D01*
Y202279D01*
X395183Y202150D01*
X395233Y202050D01*
X395253Y202010D01*
X395273Y201990D01*
X395283Y201970D01*
X395293Y201960D01*
X395373Y201850D01*
X395453Y201750D01*
X395483Y201710D01*
X395513Y201680D01*
X395523Y201670D01*
X395532Y201660D01*
X395632Y201561D01*
X395732Y201491D01*
X395772Y201461D01*
X395802Y201441D01*
X395822Y201421D01*
X395832D01*
X395962Y201351D01*
X396082Y201291D01*
X396132Y201271D01*
X396171Y201251D01*
X396191Y201241D01*
X396201D01*
X396351Y201181D01*
X396481Y201141D01*
X396541Y201121D01*
X396581Y201111D01*
X396611Y201101D01*
X396621D01*
X396790Y201061D01*
X396870Y201052D01*
X396940Y201042D01*
X397000Y201031D01*
X397050Y201021D01*
X397090D01*
X397259Y201012D01*
X397339D01*
X397419Y201002D01*
X397569D01*
X397828Y201012D01*
X397938D01*
X398048Y201021D01*
X398138D01*
X398208Y201031D01*
X398268D01*
X398527Y201061D01*
X398637Y201081D01*
X398747Y201091D01*
X398837Y201111D01*
X398907Y201121D01*
X398946Y201131D01*
X398966D01*
X399216Y201191D01*
X399336Y201221D01*
X399436Y201241D01*
X399515Y201261D01*
X399575Y201281D01*
X399625Y201291D01*
X399635D01*
X399865Y201371D01*
X399975Y201401D01*
X400065Y201441D01*
X400144Y201471D01*
X400204Y201491D01*
X400244Y201501D01*
X400254Y201511D01*
X400314Y201351D01*
X400344Y201271D01*
X400364Y201211D01*
X400384Y201151D01*
X400404Y201111D01*
X400414Y201081D01*
Y201071D01*
X400474Y200912D01*
X400494Y200842D01*
X400514Y200772D01*
X400534Y200722D01*
X400554Y200682D01*
X400564Y200652D01*
Y200642D01*
X400614Y200473D01*
X400633Y200403D01*
X400653Y200333D01*
X400663Y200273D01*
X400673Y200233D01*
X400683Y200203D01*
Y200193D01*
X400713Y200033D01*
X400723Y199904D01*
X400733Y199844D01*
X400743Y199804D01*
Y199774D01*
Y199764D01*
X400494Y199674D01*
X400374Y199644D01*
X400274Y199614D01*
X400174Y199584D01*
X400104Y199564D01*
X400065Y199554D01*
X400045D01*
X399775Y199484D01*
X399655Y199454D01*
X399535Y199434D01*
X399436Y199414D01*
X399366Y199394D01*
X399316Y199384D01*
X399296D01*
X398996Y199335D01*
X398857Y199315D01*
X398727Y199305D01*
X398617Y199285D01*
X398537D01*
X398477Y199275D01*
X398457D01*
X398108Y199255D01*
X397948D01*
X397799Y199245D01*
X397299D01*
X397120Y199255D01*
X396950Y199265D01*
X396810Y199275D01*
X396690Y199285D01*
X396601Y199295D01*
X396541Y199305D01*
X396521D01*
X396351Y199335D01*
X396181Y199364D01*
X396032Y199394D01*
X395902Y199434D01*
X395792Y199464D01*
X395702Y199484D01*
X395652Y199494D01*
X395632Y199504D01*
X395473Y199554D01*
X395333Y199604D01*
X395193Y199664D01*
X395083Y199704D01*
X394983Y199754D01*
X394914Y199784D01*
X394874Y199804D01*
X394854Y199814D01*
X394724Y199884D01*
X394594Y199953D01*
X394484Y200023D01*
X394385Y200083D01*
X394305Y200143D01*
X394245Y200183D01*
X394205Y200213D01*
X394195Y200223D01*
X394085Y200313D01*
X393975Y200403D01*
X393885Y200492D01*
X393806Y200572D01*
X393746Y200632D01*
X393696Y200682D01*
X393666Y200722D01*
X393656Y200732D01*
X393506Y200952D01*
X393436Y201052D01*
X393376Y201141D01*
X393336Y201221D01*
X393297Y201291D01*
X393277Y201331D01*
X393267Y201341D01*
X393157Y201590D01*
X393117Y201710D01*
X393087Y201820D01*
X393057Y201910D01*
X393037Y201980D01*
X393027Y202020D01*
Y202040D01*
X392977Y202319D01*
X392967Y202449D01*
X392957Y202559D01*
X392947Y202659D01*
Y202738D01*
Y202788D01*
Y202808D01*
Y202938D01*
X392957Y203058D01*
X392967Y203168D01*
X392977Y203267D01*
X392987Y203347D01*
X392997Y203417D01*
X393007Y203457D01*
Y203467D01*
X393047Y203677D01*
X393067Y203777D01*
X393087Y203857D01*
X393117Y203926D01*
X393127Y203986D01*
X393147Y204016D01*
Y204026D01*
X393237Y204206D01*
X393277Y204286D01*
X393316Y204356D01*
X393346Y204415D01*
X393376Y204455D01*
X393386Y204485D01*
X393396Y204495D01*
X393496Y204645D01*
X393586Y204765D01*
X393626Y204815D01*
X393656Y204855D01*
X393676Y204875D01*
X393686Y204885D01*
X393816Y205014D01*
X393935Y205114D01*
X393985Y205154D01*
X394025Y205184D01*
X394045Y205204D01*
X394055Y205214D01*
X394205Y205324D01*
X394345Y205414D01*
X394404Y205444D01*
X394454Y205474D01*
X394484Y205484D01*
X394494Y205494D01*
X394664Y205573D01*
X394744Y205613D01*
X394824Y205643D01*
X394884Y205673D01*
X394934Y205693D01*
X394963Y205713D01*
X394973D01*
X395153Y205783D01*
X395243Y205813D01*
X395313Y205833D01*
X395383Y205863D01*
X395433Y205873D01*
X395463Y205893D01*
X395473D01*
X395573Y205933D01*
X395652Y205953D01*
X395702Y205973D01*
X395732Y205983D01*
X395752D01*
X395772Y205993D01*
X395802Y206003D01*
X395842Y206013D01*
X395942Y206053D01*
X396072Y206103D01*
X396201Y206142D01*
X396311Y206182D01*
X396351Y206202D01*
X396391Y206212D01*
X396411Y206222D01*
X396421D01*
X396561Y206262D01*
X396680Y206302D01*
X396730Y206322D01*
X396770Y206332D01*
X396790Y206342D01*
X396800D01*
X396930Y206402D01*
X397040Y206442D01*
X397090Y206462D01*
X397120Y206472D01*
X397140Y206482D01*
X397150D01*
X397269Y206532D01*
X397369Y206572D01*
X397409Y206592D01*
X397439Y206612D01*
X397459Y206622D01*
X397469D01*
X397569Y206681D01*
X397659Y206741D01*
X397719Y206781D01*
X397729Y206791D01*
X397739D01*
X397838Y206861D01*
X397908Y206921D01*
X397958Y206971D01*
X397978Y206991D01*
X398048Y207071D01*
X398098Y207151D01*
X398138Y207211D01*
X398148Y207220D01*
Y207230D01*
X398198Y207330D01*
X398238Y207420D01*
X398258Y207490D01*
X398268Y207500D01*
Y207510D01*
X398288Y207630D01*
X398298Y207740D01*
X398308Y207780D01*
Y207819D01*
Y207839D01*
Y207849D01*
X398298Y207979D01*
X398278Y208099D01*
X398258Y208199D01*
X398228Y208289D01*
X398198Y208358D01*
X398168Y208418D01*
X398158Y208448D01*
X398148Y208458D01*
X398078Y208548D01*
X398008Y208628D01*
X397928Y208688D01*
X397858Y208748D01*
X397789Y208788D01*
X397739Y208818D01*
X397699Y208838D01*
X397689Y208848D01*
X397449Y208937D01*
X397339Y208967D01*
X397239Y208997D01*
X397150Y209027D01*
X397080Y209047D01*
X397040Y209057D01*
X397020D01*
X396750Y209097D01*
X396631Y209107D01*
X396511Y209117D01*
X396411Y209127D01*
X396132D01*
X396002Y209117D01*
X395872D01*
X395762Y209107D01*
X395672Y209097D01*
X395602D01*
X395563Y209087D01*
X395542D01*
X395293Y209047D01*
X395173Y209027D01*
X395073Y209007D01*
X394983Y208987D01*
X394924Y208977D01*
X394874Y208957D01*
X394864D01*
X394624Y208908D01*
X394524Y208878D01*
X394435Y208858D01*
X394355Y208838D01*
X394295Y208818D01*
X394255Y208808D01*
X394245D01*
X394045Y208748D01*
X393955Y208718D01*
X393876Y208688D01*
X393806Y208668D01*
X393756Y208648D01*
X393726Y208638D01*
X393716D01*
X393656Y208778D01*
X393606Y208897D01*
X393596Y208947D01*
X393576Y208987D01*
X393566Y209007D01*
Y209017D01*
X393516Y209167D01*
X393466Y209297D01*
X393456Y209347D01*
X393446Y209387D01*
X393436Y209417D01*
Y209427D01*
X393396Y209586D01*
X393376Y209656D01*
X393366Y209726D01*
X393356Y209776D01*
X393346Y209816D01*
X393336Y209846D01*
Y209856D01*
X393307Y210016D01*
X393287Y210155D01*
X393277Y210215D01*
X393267Y210255D01*
Y210285D01*
Y210295D01*
X393506Y210365D01*
X393616Y210405D01*
X393716Y210435D01*
X393806Y210455D01*
X393876Y210475D01*
X393915Y210495D01*
X393935D01*
X394195Y210564D01*
X394325Y210595D01*
X394445Y210614D01*
X394544Y210644D01*
X394624Y210654D01*
X394674Y210674D01*
X394694D01*
X394983Y210724D01*
X395123Y210744D01*
X395243Y210764D01*
X395353Y210774D01*
X395433Y210784D01*
X395483Y210794D01*
X395503D01*
X395802Y210814D01*
X395952D01*
X396072Y210824D01*
X396341D01*
X396710Y210814D01*
D02*
G37*
G36*
X418951Y215096D02*
X419240D01*
X419280Y215086D01*
X419340D01*
X419460Y215077D01*
X419560D01*
X419600Y215067D01*
X419660D01*
X419769Y215056D01*
X419859Y215037D01*
X419929Y215027D01*
X419949D01*
X420009Y214847D01*
X420059Y214677D01*
X420109Y214527D01*
X420149Y214398D01*
X420189Y214298D01*
X420219Y214218D01*
X420229Y214168D01*
X420238Y214148D01*
X420278Y214008D01*
X420318Y213889D01*
X420358Y213769D01*
X420388Y213669D01*
X420408Y213589D01*
X420428Y213529D01*
X420448Y213489D01*
Y213479D01*
X420528Y213230D01*
X420598Y213020D01*
X420658Y212840D01*
X420708Y212691D01*
X420748Y212571D01*
X420778Y212491D01*
X420788Y212441D01*
X420798Y212421D01*
X420847Y212281D01*
X420887Y212142D01*
X420937Y212002D01*
X420977Y211872D01*
X421017Y211752D01*
X421037Y211663D01*
X421057Y211603D01*
X421067Y211593D01*
Y211583D01*
X421107Y211473D01*
X421147Y211363D01*
X421157Y211323D01*
X421167Y211283D01*
X421177Y211263D01*
Y211253D01*
X421227Y211104D01*
X421267Y210964D01*
X421287Y210914D01*
X421307Y210864D01*
X421317Y210834D01*
Y210824D01*
X421376Y210644D01*
X421396Y210564D01*
X421426Y210485D01*
X421446Y210415D01*
X421466Y210365D01*
X421486Y210325D01*
Y210315D01*
X421556Y210095D01*
X421596Y209986D01*
X421626Y209886D01*
X421656Y209796D01*
X421676Y209726D01*
X421686Y209686D01*
X421696Y209666D01*
X421766Y209447D01*
X421836Y209227D01*
X421906Y209007D01*
X421975Y208798D01*
X422035Y208618D01*
X422065Y208538D01*
X422085Y208478D01*
X422105Y208418D01*
X422115Y208378D01*
X422125Y208358D01*
Y208349D01*
X422215Y208059D01*
X422315Y207750D01*
X422415Y207460D01*
X422495Y207190D01*
X422544Y207061D01*
X422574Y206951D01*
X422614Y206851D01*
X422634Y206761D01*
X422664Y206691D01*
X422684Y206632D01*
X422694Y206602D01*
Y206592D01*
X422774Y206352D01*
X422854Y206092D01*
X423023Y205583D01*
X423183Y205074D01*
X423263Y204835D01*
X423343Y204605D01*
X423413Y204386D01*
X423473Y204186D01*
X423533Y204016D01*
X423582Y203857D01*
X423622Y203737D01*
X423642Y203647D01*
X423662Y203587D01*
X423672Y203577D01*
Y203567D01*
X423782Y203238D01*
X423892Y202898D01*
X424122Y202199D01*
X424231Y201860D01*
X424341Y201521D01*
X424451Y201191D01*
X424551Y200882D01*
X424641Y200592D01*
X424730Y200333D01*
X424810Y200093D01*
X424870Y199894D01*
X424900Y199804D01*
X424930Y199734D01*
X424950Y199664D01*
X424970Y199604D01*
X424980Y199564D01*
X424990Y199534D01*
X425000Y199514D01*
Y199504D01*
X424910Y199484D01*
X424830Y199464D01*
X424770Y199454D01*
X424750D01*
X424651Y199444D01*
X424571D01*
X424501Y199434D01*
X424481D01*
X424371Y199424D01*
X424181D01*
X424072Y199414D01*
X423782D01*
X423692Y199424D01*
X423493D01*
X423403Y199434D01*
X423313D01*
X423213Y199444D01*
X423133D01*
X423063Y199454D01*
X423044D01*
X422934Y199474D01*
X422844Y199484D01*
X422804Y199494D01*
X422774Y199504D01*
X422754D01*
X422624Y199933D01*
X422504Y200343D01*
X422395Y200722D01*
X422295Y201071D01*
X422205Y201391D01*
X422115Y201690D01*
X422035Y201950D01*
X421965Y202190D01*
X421906Y202399D01*
X421856Y202579D01*
X421806Y202738D01*
X421776Y202868D01*
X421746Y202958D01*
X421726Y203028D01*
X421706Y203078D01*
Y203088D01*
X415806D01*
X415776Y202988D01*
X415746Y202898D01*
X415717Y202818D01*
X415697Y202749D01*
X415667Y202629D01*
X415637Y202549D01*
X415627Y202499D01*
X415617Y202459D01*
X415607Y202439D01*
X415597Y202419D01*
Y202389D01*
X415567Y202319D01*
X415537Y202219D01*
X415507Y202120D01*
X415477Y202020D01*
X415447Y201930D01*
X415437Y201870D01*
X415427Y201860D01*
Y201850D01*
X415397Y201750D01*
X415377Y201650D01*
X415367Y201600D01*
X415357Y201571D01*
X415347Y201551D01*
Y201541D01*
X415297Y201411D01*
X415257Y201281D01*
X415237Y201221D01*
X415227Y201171D01*
X415217Y201141D01*
Y201131D01*
X415177Y201021D01*
X415138Y200902D01*
X415108Y200782D01*
X415078Y200682D01*
X415048Y200582D01*
X415028Y200513D01*
X415008Y200462D01*
Y200443D01*
X414958Y200283D01*
X414908Y200123D01*
X414858Y199963D01*
X414818Y199824D01*
X414778Y199694D01*
X414748Y199594D01*
X414738Y199554D01*
X414728Y199524D01*
X414718Y199514D01*
Y199504D01*
X414628Y199484D01*
X414539Y199464D01*
X414479Y199454D01*
X414459D01*
X414359Y199444D01*
X414259D01*
X414219Y199434D01*
X414169D01*
X414070Y199424D01*
X413880D01*
X413780Y199414D01*
X413480D01*
X413381Y199424D01*
X413181D01*
X413071Y199434D01*
X412971D01*
X412852Y199444D01*
X412752D01*
X412722Y199454D01*
X412662D01*
X412552Y199474D01*
X412472Y199484D01*
X412412Y199504D01*
X412393D01*
X412452Y199684D01*
X412502Y199844D01*
X412552Y199993D01*
X412592Y200123D01*
X412622Y200223D01*
X412652Y200303D01*
X412662Y200353D01*
X412672Y200373D01*
X412712Y200513D01*
X412752Y200642D01*
X412792Y200752D01*
X412822Y200852D01*
X412842Y200942D01*
X412862Y201002D01*
X412882Y201042D01*
Y201052D01*
X412962Y201301D01*
X413041Y201511D01*
X413101Y201690D01*
X413141Y201840D01*
X413181Y201950D01*
X413211Y202030D01*
X413221Y202080D01*
X413231Y202100D01*
X413281Y202239D01*
X413321Y202379D01*
X413371Y202519D01*
X413411Y202659D01*
X413451Y202768D01*
X413480Y202858D01*
X413501Y202918D01*
X413511Y202928D01*
Y202938D01*
X413540Y203058D01*
X413570Y203168D01*
X413590Y203208D01*
X413600Y203248D01*
X413610Y203267D01*
Y203277D01*
X413660Y203427D01*
X413710Y203557D01*
X413720Y203617D01*
X413740Y203657D01*
X413750Y203687D01*
Y203697D01*
X413810Y203876D01*
X413830Y203966D01*
X413860Y204046D01*
X413880Y204116D01*
X413900Y204166D01*
X413920Y204206D01*
Y204216D01*
X413990Y204436D01*
X414030Y204545D01*
X414059Y204645D01*
X414089Y204725D01*
X414109Y204795D01*
X414119Y204835D01*
X414129Y204855D01*
X414199Y205074D01*
X414269Y205294D01*
X414339Y205513D01*
X414409Y205723D01*
X414459Y205903D01*
X414489Y205983D01*
X414509Y206043D01*
X414529Y206103D01*
X414539Y206142D01*
X414549Y206162D01*
Y206172D01*
X414648Y206462D01*
X414748Y206771D01*
X414838Y207061D01*
X414928Y207340D01*
X414968Y207470D01*
X415008Y207580D01*
X415048Y207680D01*
X415068Y207770D01*
X415098Y207839D01*
X415118Y207899D01*
X415128Y207929D01*
Y207939D01*
X415207Y208189D01*
X415287Y208438D01*
X415457Y208947D01*
X415617Y209457D01*
X415697Y209696D01*
X415776Y209926D01*
X415846Y210145D01*
X415906Y210335D01*
X415966Y210515D01*
X416016Y210664D01*
X416056Y210784D01*
X416076Y210874D01*
X416096Y210934D01*
X416106Y210954D01*
X416216Y211283D01*
X416325Y211633D01*
X416555Y212321D01*
X416665Y212671D01*
X416775Y213010D01*
X416875Y213330D01*
X416974Y213639D01*
X417074Y213929D01*
X417154Y214198D01*
X417234Y214428D01*
X417294Y214637D01*
X417324Y214727D01*
X417354Y214797D01*
X417374Y214867D01*
X417394Y214927D01*
X417403Y214967D01*
X417413Y214997D01*
X417424Y215017D01*
Y215027D01*
X417533Y215047D01*
X417633Y215056D01*
X417673D01*
X417703Y215067D01*
X417723D01*
X417843Y215077D01*
X417943D01*
X417993Y215086D01*
X418052D01*
X418172Y215096D01*
X418372D01*
X418482Y215106D01*
X418901D01*
X418951Y215096D01*
D02*
G37*
G36*
X30000Y220150D02*
X26750D01*
X25450Y218850D01*
X21550D01*
X17650Y214950D01*
X17000D01*
X12450Y210400D01*
Y209100D01*
X10500Y207150D01*
Y200500D01*
X10000Y200000D01*
X1000D01*
Y204800D01*
X2050Y207150D01*
X2700Y211050D01*
X4650Y213000D01*
Y214950D01*
X9200Y219500D01*
Y220150D01*
X13750Y224700D01*
X15700D01*
X17650Y226650D01*
X20250D01*
X22200Y228600D01*
X26750D01*
X27400Y229250D01*
X30000D01*
Y220150D01*
D02*
G37*
G36*
X59000Y195200D02*
X57950Y192850D01*
X57300Y188950D01*
X55350Y187000D01*
Y185050D01*
X50800Y180500D01*
Y179850D01*
X46250Y175300D01*
X44300D01*
X42350Y173350D01*
X39750D01*
X37800Y171400D01*
X33250D01*
X32600Y170750D01*
X30000D01*
Y179850D01*
X33250D01*
X34550Y181150D01*
X38450D01*
X42350Y185050D01*
X43000D01*
X47550Y189600D01*
Y190900D01*
X49500Y192850D01*
Y199500D01*
X50000Y200000D01*
X59000D01*
Y195200D01*
D02*
G37*
G36*
X499000D02*
X497950Y192850D01*
X497300Y188950D01*
X495350Y187000D01*
Y185050D01*
X490800Y180500D01*
Y179850D01*
X486250Y175300D01*
X484300D01*
X482350Y173350D01*
X479750D01*
X477800Y171400D01*
X473250D01*
X472600Y170750D01*
X470000D01*
Y179850D01*
X473250D01*
X474550Y181150D01*
X478450D01*
X482350Y185050D01*
X483000D01*
X487550Y189600D01*
Y190900D01*
X489500Y192850D01*
Y199500D01*
X490000Y200000D01*
X499000D01*
Y195200D01*
D02*
G37*
G36*
X470000Y220150D02*
X466750D01*
X465450Y218850D01*
X461550D01*
X457650Y214950D01*
X457000D01*
X452450Y210400D01*
Y209100D01*
X450500Y207150D01*
Y200500D01*
X450000Y200000D01*
X441000D01*
Y204800D01*
X442050Y207150D01*
X442700Y211050D01*
X444650Y213000D01*
Y214950D01*
X449200Y219500D01*
Y220150D01*
X453750Y224700D01*
X455700D01*
X457650Y226650D01*
X460250D01*
X462200Y228600D01*
X466750D01*
X467400Y229250D01*
X470000D01*
Y220150D01*
D02*
G37*
G36*
X30000Y50150D02*
X26750D01*
X25450Y48850D01*
X21550D01*
X17650Y44950D01*
X17000D01*
X12450Y40400D01*
Y39100D01*
X10500Y37150D01*
Y30500D01*
X10000Y30000D01*
X1000D01*
Y34800D01*
X2050Y37150D01*
X2700Y41050D01*
X4650Y43000D01*
Y44950D01*
X9200Y49500D01*
Y50150D01*
X13750Y54700D01*
X15700D01*
X17650Y56650D01*
X20250D01*
X22200Y58600D01*
X26750D01*
X27400Y59250D01*
X30000D01*
Y50150D01*
D02*
G37*
G36*
X470000D02*
X466750D01*
X465450Y48850D01*
X461550D01*
X457650Y44950D01*
X457000D01*
X452450Y40400D01*
Y39100D01*
X450500Y37150D01*
Y30500D01*
X450000Y30000D01*
X441000D01*
Y34800D01*
X442050Y37150D01*
X442700Y41050D01*
X444650Y43000D01*
Y44950D01*
X449200Y49500D01*
Y50150D01*
X453750Y54700D01*
X455700D01*
X457650Y56650D01*
X460250D01*
X462200Y58600D01*
X466750D01*
X467400Y59250D01*
X470000D01*
Y50150D01*
D02*
G37*
G36*
X105040Y115000D02*
X102500D01*
Y117540D01*
X105040D01*
Y115000D01*
D02*
G37*
%LPC*%
G36*
X377075Y213300D02*
X376127D01*
X375908Y213290D01*
X375708Y213270D01*
X375528Y213260D01*
X375378Y213240D01*
X375309Y213230D01*
X375259Y213220D01*
X375219D01*
X375189Y213210D01*
X375159D01*
X374949Y213180D01*
X374750Y213140D01*
X374560Y213100D01*
X374400Y213060D01*
X374260Y213030D01*
X374161Y213000D01*
X374121Y212990D01*
X374091Y212980D01*
X374081Y212970D01*
X374071D01*
X373881Y212910D01*
X373702Y212840D01*
X373532Y212771D01*
X373392Y212701D01*
X373272Y212641D01*
X373182Y212591D01*
X373122Y212561D01*
X373102Y212551D01*
X372943Y212451D01*
X372783Y212341D01*
X372643Y212232D01*
X372524Y212132D01*
X372424Y212052D01*
X372344Y211982D01*
X372304Y211942D01*
X372284Y211922D01*
X372154Y211782D01*
X372024Y211633D01*
X371915Y211503D01*
X371815Y211373D01*
X371735Y211263D01*
X371675Y211173D01*
X371635Y211113D01*
X371625Y211104D01*
Y211094D01*
X371515Y210914D01*
X371415Y210734D01*
X371336Y210555D01*
X371266Y210395D01*
X371206Y210265D01*
X371166Y210155D01*
X371146Y210115D01*
X371136Y210085D01*
X371126Y210065D01*
Y210055D01*
X371056Y209836D01*
X370996Y209616D01*
X370946Y209397D01*
X370896Y209207D01*
X370867Y209037D01*
X370857Y208967D01*
X370847Y208908D01*
X370837Y208858D01*
X370827Y208818D01*
Y208798D01*
Y208788D01*
X370787Y208528D01*
X370767Y208269D01*
X370747Y208019D01*
X370727Y207789D01*
Y207680D01*
Y207590D01*
X370717Y207510D01*
Y207440D01*
Y207380D01*
Y207340D01*
Y207310D01*
Y207300D01*
Y206981D01*
X370737Y206681D01*
X370747Y206402D01*
X370757Y206282D01*
X370767Y206162D01*
X370777Y206053D01*
X370787Y205963D01*
X370797Y205883D01*
X370807Y205813D01*
X370817Y205753D01*
Y205713D01*
X370827Y205693D01*
Y205683D01*
X370867Y205414D01*
X370916Y205164D01*
X370966Y204935D01*
X371016Y204745D01*
X371056Y204585D01*
X371076Y204515D01*
X371096Y204455D01*
X371106Y204415D01*
X371116Y204386D01*
X371126Y204366D01*
Y204356D01*
X371206Y204136D01*
X371286Y203936D01*
X371376Y203757D01*
X371446Y203607D01*
X371515Y203477D01*
X371575Y203377D01*
X371615Y203317D01*
X371625Y203307D01*
Y203298D01*
X371735Y203128D01*
X371855Y202978D01*
X371965Y202838D01*
X372064Y202719D01*
X372154Y202619D01*
X372234Y202549D01*
X372274Y202509D01*
X372294Y202489D01*
X372434Y202359D01*
X372584Y202249D01*
X372723Y202150D01*
X372853Y202060D01*
X372963Y201990D01*
X373043Y201930D01*
X373102Y201900D01*
X373112Y201890D01*
X373122D01*
X373292Y201800D01*
X373462Y201720D01*
X373632Y201660D01*
X373781Y201600D01*
X373911Y201561D01*
X374011Y201531D01*
X374051Y201511D01*
X374081D01*
X374091Y201501D01*
X374101D01*
X374300Y201451D01*
X374500Y201401D01*
X374680Y201361D01*
X374849Y201331D01*
X374999Y201311D01*
X375109Y201291D01*
X375149D01*
X375179Y201281D01*
X375209D01*
X375638Y201241D01*
X375848Y201231D01*
X376027Y201221D01*
X376187Y201211D01*
X376686D01*
X376756Y201221D01*
X376906D01*
X377075Y201231D01*
X377225D01*
X377275Y201241D01*
X377365D01*
X377535Y201261D01*
X377684Y201271D01*
X377814Y201281D01*
X377924Y201291D01*
X378004Y201301D01*
X378064Y201311D01*
X378114D01*
Y201451D01*
Y201581D01*
Y201690D01*
Y201790D01*
Y201880D01*
Y201940D01*
Y201980D01*
Y201990D01*
Y202190D01*
Y202269D01*
Y202349D01*
Y202409D01*
Y202459D01*
Y202489D01*
Y202499D01*
Y202689D01*
Y202848D01*
Y202988D01*
Y203098D01*
Y203188D01*
Y203258D01*
Y203298D01*
Y203307D01*
Y203527D01*
Y203637D01*
Y203737D01*
Y203817D01*
Y203886D01*
Y203926D01*
Y203946D01*
Y204036D01*
Y204126D01*
Y204196D01*
Y204206D01*
Y204216D01*
Y204326D01*
Y204426D01*
Y204475D01*
Y204505D01*
Y204525D01*
Y204535D01*
Y204665D01*
Y204795D01*
Y204855D01*
Y204895D01*
Y204925D01*
Y204935D01*
Y205104D01*
Y205184D01*
Y205264D01*
Y205324D01*
Y205374D01*
Y205414D01*
Y205424D01*
Y205593D01*
Y205763D01*
Y205933D01*
Y206092D01*
Y206222D01*
Y206332D01*
Y206372D01*
Y206402D01*
Y206422D01*
Y206432D01*
Y206651D01*
Y206891D01*
Y207111D01*
Y207320D01*
Y207510D01*
Y207580D01*
Y207650D01*
Y207710D01*
Y207750D01*
Y207770D01*
Y207780D01*
Y208159D01*
Y208548D01*
Y208937D01*
Y209127D01*
Y209297D01*
Y209466D01*
Y209616D01*
Y209746D01*
Y209866D01*
Y209956D01*
Y210026D01*
Y210075D01*
Y210085D01*
Y210345D01*
Y210604D01*
Y211143D01*
Y211663D01*
Y211912D01*
Y212152D01*
Y212371D01*
Y212581D01*
Y212761D01*
Y212910D01*
Y213040D01*
Y213130D01*
Y213190D01*
Y213210D01*
X377974Y213230D01*
X377844Y213240D01*
X377794Y213250D01*
X377714D01*
X377545Y213270D01*
X377475Y213280D01*
X377405D01*
X377345Y213290D01*
X377255D01*
X377075Y213300D01*
D02*
G37*
G36*
X418761Y212930D02*
X418611Y212441D01*
X418472Y211972D01*
X418332Y211513D01*
X418202Y211074D01*
X418072Y210644D01*
X417953Y210235D01*
X417833Y209836D01*
X417723Y209457D01*
X417613Y209097D01*
X417503Y208748D01*
X417403Y208418D01*
X417314Y208099D01*
X417224Y207799D01*
X417134Y207510D01*
X417054Y207241D01*
X416974Y206981D01*
X416904Y206741D01*
X416834Y206522D01*
X416775Y206312D01*
X416715Y206122D01*
X416665Y205943D01*
X416615Y205773D01*
X416575Y205633D01*
X416535Y205504D01*
X416495Y205384D01*
X416465Y205284D01*
X416445Y205194D01*
X416425Y205124D01*
X416405Y205074D01*
X416395Y205034D01*
X416385Y205014D01*
Y205004D01*
X421117D01*
X420967Y205494D01*
X420827Y205963D01*
X420698Y206422D01*
X420568Y206861D01*
X420438Y207290D01*
X420318Y207700D01*
X420199Y208099D01*
X420089Y208478D01*
X419979Y208838D01*
X419879Y209187D01*
X419779Y209516D01*
X419679Y209836D01*
X419590Y210135D01*
X419510Y210425D01*
X419430Y210694D01*
X419350Y210954D01*
X419280Y211193D01*
X419210Y211413D01*
X419150Y211623D01*
X419090Y211822D01*
X419041Y211992D01*
X418991Y212162D01*
X418951Y212301D01*
X418911Y212441D01*
X418871Y212551D01*
X418841Y212651D01*
X418821Y212741D01*
X418801Y212810D01*
X418781Y212860D01*
X418771Y212900D01*
X418761Y212920D01*
Y212930D01*
D02*
G37*
%LPD*%
D15*
X324750Y151500D02*
G03*
X324750Y151500I-1250J0D01*
G01*
D16*
X377318Y115945D02*
X377270Y115992D01*
X377318Y116040D01*
X377365Y115992D01*
X377318Y115945D01*
D32*
X356910Y43585D02*
G03*
X354370Y46125I-2540J0D01*
G01*
Y24408D02*
G03*
X356910Y26948I0J2540D01*
G01*
X339130Y46252D02*
G03*
X336590Y43712I-0J-2540D01*
G01*
Y27075D02*
G03*
X339130Y24535I2540J0D01*
G01*
X155000Y87500D02*
Y122500D01*
X215000Y87500D02*
Y122500D01*
X155000Y87500D02*
X215000D01*
X155000Y122500D02*
X215000D01*
X336590Y27075D02*
Y43712D01*
X356910Y26948D02*
Y43585D01*
X209700Y22300D02*
Y47700D01*
X82700D02*
X209700D01*
X82700Y22300D02*
X209700D01*
X82700D02*
Y47700D01*
X310500Y82000D02*
Y148000D01*
X279500Y82000D02*
Y148000D01*
X310500D01*
X279500Y82000D02*
X310500D01*
X231500Y22300D02*
X307700D01*
X231500D02*
Y47700D01*
X307700D01*
Y22300D02*
Y47700D01*
X416335Y192831D02*
X418002Y194497D01*
X421334D01*
X423000Y192831D01*
Y191164D01*
X421334Y189498D01*
X418002D01*
X416335Y187832D01*
Y186166D01*
X418002Y184500D01*
X421334D01*
X423000Y186166D01*
X413003Y184500D02*
Y191164D01*
X411337D01*
X409671Y189498D01*
Y184500D01*
Y189498D01*
X408005Y191164D01*
X406339Y189498D01*
Y184500D01*
X401340Y191164D02*
X398008D01*
X396342Y189498D01*
Y184500D01*
X401340D01*
X403006Y186166D01*
X401340Y187832D01*
X396342D01*
X393010Y191164D02*
Y184500D01*
Y187832D01*
X391343Y189498D01*
X389677Y191164D01*
X388011D01*
X381347Y192831D02*
Y191164D01*
X383013D01*
X379681D01*
X381347D01*
Y186166D01*
X379681Y184500D01*
X358021Y194497D02*
X364686D01*
Y189498D01*
X361353D01*
X364686D01*
Y184500D01*
X354689D02*
X351356D01*
X353022D01*
Y191164D01*
X354689D01*
X346358Y184500D02*
X343026D01*
X344692D01*
Y194497D01*
X346358D01*
X336361Y191164D02*
X333029D01*
X331363Y189498D01*
Y184500D01*
X336361D01*
X338027Y186166D01*
X336361Y187832D01*
X331363D01*
X328031Y184500D02*
Y191164D01*
X326365D01*
X324698Y189498D01*
Y184500D01*
Y189498D01*
X323032Y191164D01*
X321366Y189498D01*
Y184500D01*
X313035D02*
X316368D01*
X318034Y186166D01*
Y189498D01*
X316368Y191164D01*
X313035D01*
X311369Y189498D01*
Y187832D01*
X318034D01*
X308037Y184500D02*
Y191164D01*
X303039D01*
X301373Y189498D01*
Y184500D01*
X296374Y192831D02*
Y191164D01*
X298040D01*
X294708D01*
X296374D01*
Y186166D01*
X294708Y184500D01*
X273048Y192831D02*
X274715Y194497D01*
X278047D01*
X279713Y192831D01*
Y191164D01*
X278047Y189498D01*
X274715D01*
X273048Y187832D01*
Y186166D01*
X274715Y184500D01*
X278047D01*
X279713Y186166D01*
X264718Y184500D02*
X268050D01*
X269716Y186166D01*
Y189498D01*
X268050Y191164D01*
X264718D01*
X263052Y189498D01*
Y187832D01*
X269716D01*
X259719Y184500D02*
Y191164D01*
X254721D01*
X253055Y189498D01*
Y184500D01*
X249722D02*
X244724D01*
X243058Y186166D01*
X244724Y187832D01*
X248056D01*
X249722Y189498D01*
X248056Y191164D01*
X243058D01*
X238060Y184500D02*
X234727D01*
X233061Y186166D01*
Y189498D01*
X234727Y191164D01*
X238060D01*
X239726Y189498D01*
Y186166D01*
X238060Y184500D01*
X229729Y191164D02*
Y184500D01*
Y187832D01*
X228063Y189498D01*
X226397Y191164D01*
X224731D01*
X209735D02*
X206403Y184500D01*
X203071Y191164D01*
X199739Y192831D02*
X198072Y194497D01*
X194740D01*
X193074Y192831D01*
Y186166D01*
X194740Y184500D01*
X198072D01*
X199739Y186166D01*
Y192831D01*
X189742Y184500D02*
Y186166D01*
X188076D01*
Y184500D01*
X189742D01*
X174747D02*
X181411D01*
X174747Y191164D01*
Y192831D01*
X176413Y194497D01*
X179745D01*
X181411Y192831D01*
X171414Y184500D02*
Y191164D01*
X168082Y194497D01*
X164750Y191164D01*
Y184500D01*
Y189498D01*
X171414D01*
X402110Y30250D02*
Y36915D01*
X398778Y40247D01*
X395446Y36915D01*
Y30250D01*
Y35248D01*
X402110D01*
X392113Y40247D02*
Y30250D01*
X387115D01*
X385449Y31916D01*
Y38581D01*
X387115Y40247D01*
X392113D01*
X382117D02*
Y30250D01*
X377118D01*
X375452Y31916D01*
Y38581D01*
X377118Y40247D01*
X382117D01*
X372120Y30250D02*
Y40247D01*
X367121D01*
X365455Y38581D01*
Y35248D01*
X367121Y33582D01*
X372120D01*
X368787D02*
X365455Y30250D01*
X308000Y19997D02*
Y10000D01*
X303002D01*
X301336Y11666D01*
Y13332D01*
X303002Y14999D01*
X308000D01*
X303002D01*
X301336Y16665D01*
Y18331D01*
X303002Y19997D01*
X308000D01*
X293005D02*
X296337D01*
X298003Y18331D01*
Y11666D01*
X296337Y10000D01*
X293005D01*
X291339Y11666D01*
Y18331D01*
X293005Y19997D01*
X283008D02*
X286340D01*
X288006Y18331D01*
Y11666D01*
X286340Y10000D01*
X283008D01*
X281342Y11666D01*
Y18331D01*
X283008Y19997D01*
X278010D02*
X271345D01*
X274678D01*
Y10000D01*
X268013Y8334D02*
X261348D01*
X258016Y18331D02*
X256350Y19997D01*
X253018D01*
X251352Y18331D01*
Y11666D01*
X253018Y10000D01*
X256350D01*
X258016Y11666D01*
Y18331D01*
X220835Y138331D02*
X222502Y139997D01*
X225834D01*
X227500Y138331D01*
Y131666D01*
X225834Y130000D01*
X222502D01*
X220835Y131666D01*
X217503Y130000D02*
Y136664D01*
X214171Y139997D01*
X210839Y136664D01*
Y130000D01*
Y134998D01*
X217503D01*
X207506Y139997D02*
Y130000D01*
X200842D01*
X197510Y139997D02*
X194177D01*
X195844D01*
Y130000D01*
X197510D01*
X194177D01*
X189179Y139997D02*
Y130000D01*
X184181D01*
X182514Y131666D01*
Y133332D01*
X184181Y134998D01*
X189179D01*
X184181D01*
X182514Y136664D01*
Y138331D01*
X184181Y139997D01*
X189179D01*
X179182Y130000D02*
Y139997D01*
X174184D01*
X172518Y138331D01*
Y134998D01*
X174184Y133332D01*
X179182D01*
X175850D02*
X172518Y130000D01*
X169186D02*
Y136664D01*
X165853Y139997D01*
X162521Y136664D01*
Y130000D01*
Y134998D01*
X169186D01*
X159189Y139997D02*
X152524D01*
X155856D01*
Y130000D01*
X142527Y139997D02*
X149192D01*
Y130000D01*
X142527D01*
X149192Y134998D02*
X145860D01*
X203335Y18331D02*
X205002Y19997D01*
X208334D01*
X210000Y18331D01*
Y16665D01*
X208334Y14998D01*
X205002D01*
X203335Y13332D01*
Y11666D01*
X205002Y10000D01*
X208334D01*
X210000Y11666D01*
X200003Y19997D02*
Y10000D01*
X196671Y13332D01*
X193339Y10000D01*
Y19997D01*
X190006D02*
Y10000D01*
X185008D01*
X183342Y11666D01*
Y18331D01*
X185008Y19997D01*
X190006D01*
X495000Y155000D02*
Y161665D01*
X491668Y164997D01*
X488335Y161665D01*
Y155000D01*
Y159998D01*
X495000D01*
X485003Y155000D02*
Y164997D01*
X478339Y155000D01*
Y164997D01*
X475006Y155000D02*
Y161665D01*
X471674Y164997D01*
X468342Y161665D01*
Y155000D01*
Y159998D01*
X475006D01*
X465010Y164997D02*
Y155000D01*
X458345D01*
X450014Y164997D02*
X453347D01*
X455013Y163331D01*
Y156666D01*
X453347Y155000D01*
X450014D01*
X448348Y156666D01*
Y163331D01*
X450014Y164997D01*
X438352Y163331D02*
X440018Y164997D01*
X443350D01*
X445016Y163331D01*
Y156666D01*
X443350Y155000D01*
X440018D01*
X438352Y156666D01*
Y159998D01*
X441684D01*
D33*
X490000Y200000D02*
G03*
X490000Y200000I-20000J0D01*
G01*
X50000D02*
G03*
X50000Y200000I-20000J0D01*
G01*
Y30000D02*
G03*
X50000Y30000I-20000J0D01*
G01*
X490000D02*
G03*
X490000Y30000I-20000J0D01*
G01*
D34*
X499000Y200000D02*
G03*
X499000Y200000I-29000J0D01*
G01*
X59000D02*
G03*
X59000Y200000I-29000J0D01*
G01*
Y30000D02*
G03*
X59000Y30000I-29000J0D01*
G01*
X499000D02*
G03*
X499000Y30000I-29000J0D01*
G01*
D35*
X345238Y126778D02*
X354762D01*
X345238Y123222D02*
X354762D01*
X240238Y111778D02*
X249762D01*
X240238Y108222D02*
X249762D01*
X362008Y127036D02*
X375032D01*
X362008Y124044D02*
X375032D01*
X398916Y90828D02*
Y103852D01*
X395924Y90828D02*
Y103852D01*
X394710Y111040D02*
Y140040D01*
X402330D01*
Y111040D02*
Y140040D01*
X394710Y111040D02*
X402330D01*
X118502Y96000D02*
X121550D01*
Y134050D01*
X118502D02*
X121550D01*
X83500Y96000D02*
X86500D01*
X83500D02*
Y134050D01*
X86500D01*
D55*
X303500Y138000D02*
G03*
X303500Y138000I-3000J0D01*
G01*
M02*
