G04 Layer_Color=65535*
%FSLAX44Y44*%
%MOMM*%
G71*
G01*
G75*
%ADD32C,0.2000*%
%ADD33C,0.3000*%
%ADD34C,0.1500*%
%ADD35C,0.1270*%
%ADD36C,0.1524*%
G36*
X33250Y58600D02*
X37800D01*
X39750Y56650D01*
X42350D01*
X44300Y54700D01*
X46250D01*
X50800Y50150D01*
Y49500D01*
X55350Y44950D01*
Y43000D01*
X57300Y41050D01*
X57950Y37150D01*
X59000Y34800D01*
Y30000D01*
X50000D01*
X49500Y30500D01*
Y37150D01*
X47550Y39100D01*
Y40400D01*
X43000Y44950D01*
X42350D01*
X38450Y48850D01*
X34550D01*
X33250Y50150D01*
X30000D01*
Y59250D01*
X32600D01*
X33250Y58600D01*
D02*
G37*
G36*
X473250D02*
X477800D01*
X479750Y56650D01*
X482350D01*
X484300Y54700D01*
X486250D01*
X490800Y50150D01*
Y49500D01*
X495350Y44950D01*
Y43000D01*
X497300Y41050D01*
X497950Y37150D01*
X499000Y34800D01*
Y30000D01*
X490000D01*
X489500Y30500D01*
Y37150D01*
X487550Y39100D01*
Y40400D01*
X483000Y44950D01*
X482350D01*
X478450Y48850D01*
X474550D01*
X473250Y50150D01*
X470000D01*
Y59250D01*
X472600D01*
X473250Y58600D01*
D02*
G37*
G36*
X10500Y29500D02*
Y22850D01*
X12450Y20900D01*
Y19600D01*
X17000Y15050D01*
X17650D01*
X21550Y11150D01*
X25450D01*
X26750Y9850D01*
X30000D01*
Y750D01*
X27400D01*
X26750Y1400D01*
X22200D01*
X20250Y3350D01*
X17650D01*
X15700Y5300D01*
X13750D01*
X9200Y9850D01*
Y10500D01*
X4650Y15050D01*
Y17000D01*
X2700Y18950D01*
X2050Y22850D01*
X1000Y25200D01*
Y30000D01*
X10000D01*
X10500Y29500D01*
D02*
G37*
G36*
X450500D02*
Y22850D01*
X452450Y20900D01*
Y19600D01*
X457000Y15050D01*
X457650D01*
X461550Y11150D01*
X465450D01*
X466750Y9850D01*
X470000D01*
Y750D01*
X467400D01*
X466750Y1400D01*
X462200D01*
X460250Y3350D01*
X457650D01*
X455700Y5300D01*
X453750D01*
X449200Y9850D01*
Y10500D01*
X444650Y15050D01*
Y17000D01*
X442700Y18950D01*
X442050Y22850D01*
X441000Y25200D01*
Y30000D01*
X450000D01*
X450500Y29500D01*
D02*
G37*
G36*
X33250Y228600D02*
X37800D01*
X39750Y226650D01*
X42350D01*
X44300Y224700D01*
X46250D01*
X50800Y220150D01*
Y219500D01*
X55350Y214950D01*
Y213000D01*
X57300Y211050D01*
X57950Y207150D01*
X59000Y204800D01*
Y200000D01*
X50000D01*
X49500Y200500D01*
Y207150D01*
X47550Y209100D01*
Y210400D01*
X43000Y214950D01*
X42350D01*
X38450Y218850D01*
X34550D01*
X33250Y220150D01*
X30000D01*
Y229250D01*
X32600D01*
X33250Y228600D01*
D02*
G37*
G36*
X473250D02*
X477800D01*
X479750Y226650D01*
X482350D01*
X484300Y224700D01*
X486250D01*
X490800Y220150D01*
Y219500D01*
X495350Y214950D01*
Y213000D01*
X497300Y211050D01*
X497950Y207150D01*
X499000Y204800D01*
Y200000D01*
X490000D01*
X489500Y200500D01*
Y207150D01*
X487550Y209100D01*
Y210400D01*
X483000Y214950D01*
X482350D01*
X478450Y218850D01*
X474550D01*
X473250Y220150D01*
X470000D01*
Y229250D01*
X472600D01*
X473250Y228600D01*
D02*
G37*
G36*
X10500Y199500D02*
Y192850D01*
X12450Y190900D01*
Y189600D01*
X17000Y185050D01*
X17650D01*
X21550Y181150D01*
X25450D01*
X26750Y179850D01*
X30000D01*
Y170750D01*
X27400D01*
X26750Y171400D01*
X22200D01*
X20250Y173350D01*
X17650D01*
X15700Y175300D01*
X13750D01*
X9200Y179850D01*
Y180500D01*
X4650Y185050D01*
Y187000D01*
X2700Y188950D01*
X2050Y192850D01*
X1000Y195200D01*
Y200000D01*
X10000D01*
X10500Y199500D01*
D02*
G37*
G36*
X450500D02*
Y192850D01*
X452450Y190900D01*
Y189600D01*
X457000Y185050D01*
X457650D01*
X461550Y181150D01*
X465450D01*
X466750Y179850D01*
X470000D01*
Y170750D01*
X467400D01*
X466750Y171400D01*
X462200D01*
X460250Y173350D01*
X457650D01*
X455700Y175300D01*
X453750D01*
X449200Y179850D01*
Y180500D01*
X444650Y185050D01*
Y187000D01*
X442700Y188950D01*
X442050Y192850D01*
X441000Y195200D01*
Y200000D01*
X450000D01*
X450500Y199500D01*
D02*
G37*
D32*
X364000Y170000D02*
G03*
X364000Y170000I-1000J0D01*
G01*
X81900Y182300D02*
Y207700D01*
X132700D01*
Y182300D02*
Y207700D01*
X81900Y182300D02*
X132700D01*
X116400Y177998D02*
X123064D01*
X119732Y181331D02*
Y174666D01*
X91000Y177998D02*
X97664D01*
X83000Y219997D02*
Y210000D01*
X89664D01*
X99661Y219997D02*
X92997D01*
Y210000D01*
X99661D01*
X92997Y214998D02*
X96329D01*
X102993Y219997D02*
Y210000D01*
X107992D01*
X109658Y211666D01*
Y218331D01*
X107992Y219997D01*
X102993D01*
X470000Y164997D02*
X473332D01*
X471666D01*
Y155000D01*
X470000D01*
X473332D01*
X484995D02*
X478331D01*
X484995Y161665D01*
Y163331D01*
X483329Y164997D01*
X479997D01*
X478331Y163331D01*
X494992D02*
X493326Y164997D01*
X489994D01*
X488327Y163331D01*
Y156666D01*
X489994Y155000D01*
X493326D01*
X494992Y156666D01*
D33*
X490000Y200000D02*
G03*
X490000Y200000I-20000J0D01*
G01*
X50000D02*
G03*
X50000Y200000I-20000J0D01*
G01*
Y30000D02*
G03*
X50000Y30000I-20000J0D01*
G01*
X490000D02*
G03*
X490000Y30000I-20000J0D01*
G01*
D34*
X499000Y200000D02*
G03*
X499000Y200000I-29000J0D01*
G01*
X59000D02*
G03*
X59000Y200000I-29000J0D01*
G01*
Y30000D02*
G03*
X59000Y30000I-29000J0D01*
G01*
X499000D02*
G03*
X499000Y30000I-29000J0D01*
G01*
D35*
X352738Y30722D02*
X362262D01*
X352738Y34278D02*
X362262D01*
X239064Y198476D02*
Y201524D01*
X230936Y198476D02*
Y201524D01*
X264064Y198476D02*
Y201524D01*
X255936Y198476D02*
Y201524D01*
X280238Y201778D02*
X289762D01*
X280238Y198222D02*
X289762D01*
X355238Y198222D02*
X364762D01*
X355238Y201778D02*
X364762D01*
X180936Y198476D02*
Y201524D01*
X189064Y198476D02*
Y201524D01*
X155936Y198476D02*
Y201524D01*
X164064Y198476D02*
Y201524D01*
X205238Y201778D02*
X214762D01*
X205238Y198222D02*
X214762D01*
X339064Y198476D02*
Y201524D01*
X330936Y198476D02*
Y201524D01*
X305238Y201778D02*
X314762D01*
X305238Y198222D02*
X314762D01*
D36*
X388396Y195682D02*
Y204364D01*
X401604Y184252D02*
Y194158D01*
X388476Y184252D02*
X401604D01*
Y205136D02*
Y215724D01*
X388476D02*
X401604D01*
M02*
